<?xml version="1.0" encoding="UTF-8"?>
<!DOCTYPE svg PUBLIC "-//W3C//DTD SVG 1.1//EN" "http://www.w3.org/Graphics/SVG/1.1/DTD/svg11.dtd">
<svg xmlns="http://www.w3.org/2000/svg" version="1.1" width="344px" height="344px" style="shape-rendering:geometricPrecision; text-rendering:geometricPrecision; image-rendering:optimizeQuality; fill-rule:evenodd; clip-rule:evenodd" xmlns:xlink="http://www.w3.org/1999/xlink">
<g><path style="opacity:0.004" fill="#fefefe" d="M -0.5,-0.5 C 58.5,-0.5 117.5,-0.5 176.5,-0.5C 177.167,0.833333 177.833,0.833333 178.5,-0.5C 233.5,-0.5 288.5,-0.5 343.5,-0.5C 343.5,69.5 343.5,139.5 343.5,209.5C 342.167,210.167 342.167,210.833 343.5,211.5C 343.5,212.5 343.5,213.5 343.5,214.5C 341.693,211.481 340.193,208.148 339,204.5C 337.871,202.859 336.371,201.859 334.5,201.5C 334.842,200.662 335.508,200.328 336.5,200.5C 337.575,201.562 338.575,201.562 339.5,200.5C 338.995,199.081 337.995,198.415 336.5,198.5C 335.094,198.027 334.427,197.027 334.5,195.5C 336.465,195.052 336.798,194.052 335.5,192.5C 334.702,192.957 334.369,193.624 334.5,194.5C 333.221,192.877 331.887,191.21 330.5,189.5C 330.863,188.817 331.196,188.15 331.5,187.5C 332.315,188.429 333.148,189.429 334,190.5C 333.361,186.823 333.527,183.157 334.5,179.5C 333.311,178.571 331.978,178.238 330.5,178.5C 330.631,175.633 329.297,173.967 326.5,173.5C 326.725,171.284 325.892,169.617 324,168.5C 323.536,169.094 323.369,169.761 323.5,170.5C 322.326,169.486 321.66,168.153 321.5,166.5C 320.088,164.396 319.088,162.063 318.5,159.5C 319.151,160.091 319.818,160.757 320.5,161.5C 321.476,159.877 320.976,158.543 319,157.5C 318.601,157.728 318.435,158.062 318.5,158.5C 316.524,156.329 314.691,153.995 313,151.5C 312.883,148.058 311.717,145.058 309.5,142.5C 307.929,141.691 306.262,141.357 304.5,141.5C 302.012,139.612 299.012,138.945 295.5,139.5C 293.876,139.64 292.71,138.973 292,137.5C 291.667,138.167 291.333,138.833 291,139.5C 290.727,137.671 289.893,136.171 288.5,135C 285.439,132.965 282.105,131.799 278.5,131.5C 278.468,129.381 279.468,128.048 281.5,127.5C 281.343,126.127 281.51,124.793 282,123.5C 285.599,120.118 286.765,116.118 285.5,111.5C 285.5,111.167 285.5,110.833 285.5,110.5C 286.376,110.631 287.043,110.298 287.5,109.5C 288.805,106.947 289.805,104.28 290.5,101.5C 289.879,96.368 289.213,91.368 288.5,86.5C 288.232,79.7122 286.565,73.3789 283.5,67.5C 283.167,66.1667 282.833,64.8333 282.5,63.5C 280.637,57.3385 279.304,51.0052 278.5,44.5C 277.667,32.1801 277.167,19.8468 277,7.5C 276.5,7 276,6.5 275.5,6C 271.514,5.50115 267.514,5.33449 263.5,5.5C 258.894,6.98851 254.561,9.15518 250.5,12C 248.866,12.4935 247.199,12.6602 245.5,12.5C 245.5,13.5 245.5,14.5 245.5,15.5C 242.252,18.7114 238.419,21.0447 234,22.5C 229.794,21.2411 225.627,19.9077 221.5,18.5C 218.516,17.2517 215.682,15.585 213,13.5C 210.882,14.7387 209.049,14.4054 207.5,12.5C 208.873,12.6567 210.207,12.49 211.5,12C 208.515,11.1324 205.515,10.7991 202.5,11C 203.737,11.2321 204.737,11.7321 205.5,12.5C 190.501,11.222 175.501,11.222 160.5,12.5C 157.378,14.5912 154.045,15.2579 150.5,14.5C 146.699,17.0747 142.365,18.408 137.5,18.5C 139.5,17.5 141.5,16.5 143.5,15.5C 140.09,15.7819 136.757,16.4486 133.5,17.5C 129.252,15.8988 125.252,13.8988 121.5,11.5C 120.833,11.6667 120.167,11.8333 119.5,12C 121.119,12.2355 122.119,13.0689 122.5,14.5C 120.801,14.6602 119.134,14.4935 117.5,14C 117.833,13.6667 118.167,13.3333 118.5,13C 113.434,9.36532 107.768,7.19865 101.5,6.5C 101.5,6.16667 101.5,5.83333 101.5,5.5C 96.035,4.77267 91.035,5.77267 86.5,8.5C 86.4531,25.9825 86.4531,43.3159 86.5,60.5C 86.5,61.1667 86.5,61.8333 86.5,62.5C 86.6716,63.4916 86.3382,64.1583 85.5,64.5C 81.9906,67.2391 80.6572,70.9057 81.5,75.5C 79.9261,77.1016 79.2594,79.1016 79.5,81.5C 78.2529,88.4796 78.2529,95.4796 79.5,102.5C 79.848,106.258 80.5147,109.924 81.5,113.5C 80.6618,113.842 80.3284,114.508 80.5,115.5C 78.5516,113.68 77.5516,111.346 77.5,108.5C 71.9945,109.102 66.8278,108.102 62,105.5C 61.5,105.667 61,105.833 60.5,106C 63.6404,106.991 65.9737,108.824 67.5,111.5C 66.0755,109.969 65.4088,110.302 65.5,112.5C 65.1667,112.5 64.8333,112.5 64.5,112.5C 62.5965,108.697 59.5965,106.031 55.5,104.5C 53.1658,105.841 51.4991,105.174 50.5,102.5C 49.8333,102.833 49.1667,103.167 48.5,103.5C 45.9795,102.215 43.3128,101.548 40.5,101.5C 36.4862,101.334 32.4862,101.501 28.5,102C 27.2625,102.232 26.2625,102.732 25.5,103.5C 21.1163,104.192 17.4496,106.192 14.5,109.5C 11.8333,110.167 10.1667,111.833 9.5,114.5C 7.10001,116.296 5.43334,118.63 4.5,121.5C 3.09368,121.973 2.42702,122.973 2.5,124.5C 1.93798,127.546 1.27132,130.546 0.5,133.5C 0.166667,133.5 -0.166667,133.5 -0.5,133.5C -0.5,88.8333 -0.5,44.1667 -0.5,-0.5 Z M 183.5,8.5 C 187.142,9.0804 190.809,9.5804 194.5,10C 188.167,10.6667 181.833,10.6667 175.5,10C 178.365,9.8171 181.031,9.3171 183.5,8.5 Z M 207.5,12.5 C 206.833,12.5 206.167,12.5 205.5,12.5C 204.737,11.7321 203.737,11.2321 202.5,11C 205.515,10.7991 208.515,11.1324 211.5,12C 210.207,12.49 208.873,12.6567 207.5,12.5 Z M 84.5,13.5 C 85.6605,26.9938 85.8272,40.6604 85,54.5C 84.8105,50.8298 83.9772,47.3298 82.5,44C 84.5534,39.7786 84.5534,35.4452 82.5,31C 83,30.5 83.5,30 84,29.5C 84.4994,24.1771 84.666,18.8437 84.5,13.5 Z M 221.5,14.5 C 223.927,14.523 226.26,15.023 228.5,16C 225.788,16.8258 223.455,16.3258 221.5,14.5 Z M 239.5,14.5 C 237.092,18.6292 233.759,19.4625 229.5,17C 230.899,16.4054 232.232,16.5721 233.5,17.5C 235.32,16.1171 237.32,15.1171 239.5,14.5 Z M 143.5,15.5 C 141.5,16.5 139.5,17.5 137.5,18.5C 135.323,18.5861 133.323,19.2528 131.5,20.5C 129.067,17.5448 126.067,15.5448 122.5,14.5C 122.119,13.0689 121.119,12.2355 119.5,12C 120.167,11.8333 120.833,11.6667 121.5,11.5C 125.252,13.8988 129.252,15.8988 133.5,17.5C 136.757,16.4486 140.09,15.7819 143.5,15.5 Z M 108.5,23.5 C 111.24,23.7556 113.574,24.7556 115.5,26.5C 112.382,27.443 110.048,26.443 108.5,23.5 Z M 103.5,24.5 C 107.243,24.4592 107.41,25.1259 104,26.5C 103.536,25.9056 103.369,25.2389 103.5,24.5 Z M 256.5,22.5 C 259.111,23.3513 261.777,23.518 264.5,23C 263.692,23.3076 263.025,23.8076 262.5,24.5C 263.127,25.4168 263.461,26.4168 263.5,27.5C 261.958,26.6993 260.292,26.366 258.5,26.5C 247.739,28.1713 247.072,26.838 256.5,22.5 Z M 263.5,27.5 C 264.391,28.2613 265.058,29.2613 265.5,30.5C 264.787,32.7759 264.287,35.1093 264,37.5C 263.502,34.1832 263.335,30.8499 263.5,27.5 Z M 285.5,62.5 C 286.077,61.2267 286.743,61.2267 287.5,62.5C 287.03,63.463 286.363,63.463 285.5,62.5 Z M 74.5,80.5 C 75.4916,87.6476 75.825,94.9809 75.5,102.5C 74.5,102.5 73.5,102.5 72.5,102.5C 74.2963,95.3261 74.963,87.9928 74.5,80.5 Z M 80.5,115.5 C 81.0138,117.512 81.1805,119.512 81,121.5C 80.0766,120.241 79.2432,118.908 78.5,117.5C 77.8333,117.833 77.1667,118.167 76.5,118.5C 73.9819,115.424 70.9819,113.09 67.5,111.5C 65.9737,108.824 63.6404,106.991 60.5,106C 61,105.833 61.5,105.667 62,105.5C 66.8278,108.102 71.9945,109.102 77.5,108.5C 77.5516,111.346 78.5516,113.68 80.5,115.5 Z M 4.5,112.5 C 5.77329,113.077 5.77329,113.743 4.5,114.5C 3.53705,114.03 3.53705,113.363 4.5,112.5 Z M 281.5,127.5 C 283.556,128.908 285.556,129.574 287.5,129.5C 286.252,131.69 284.586,132.023 282.5,130.5C 281.614,129.675 281.281,128.675 281.5,127.5 Z M 321.5,166.5 C 322.077,165.227 322.743,165.227 323.5,166.5C 323.03,167.463 322.363,167.463 321.5,166.5 Z"/></g>
<g><path style="opacity:0.996" fill="#12110f" d="M 91.5,8.5 C 99.2211,8.09686 106.554,9.59686 113.5,13C 119.17,15.8328 124.503,19.1661 129.5,23C 131.545,23.4901 133.545,23.3235 135.5,22.5C 141.166,21.6096 146.5,19.943 151.5,17.5C 151.833,17.5 152.167,17.5 152.5,17.5C 155.152,17.5905 157.485,16.9238 159.5,15.5C 180.331,12.3864 200.998,13.3864 221.5,18.5C 225.627,19.9077 229.794,21.2411 234,22.5C 238.419,21.0447 242.252,18.7114 245.5,15.5C 247.5,14.8333 249.5,14.1667 251.5,13.5C 255.533,12.9751 259.2,11.6418 262.5,9.5C 266.5,9.5 270.5,9.5 274.5,9.5C 274.333,24.5037 274.5,39.5037 275,54.5C 275.383,55.056 275.883,55.3893 276.5,55.5C 276.738,57.4044 277.738,58.7377 279.5,59.5C 280.5,60.8333 281.5,62.1667 282.5,63.5C 282.833,64.8333 283.167,66.1667 283.5,67.5C 284.149,71.9512 285.316,76.2845 287,80.5C 287.5,87.4921 287.666,94.4921 287.5,101.5C 287.072,104.564 286.406,107.564 285.5,110.5C 285.5,110.833 285.5,111.167 285.5,111.5C 284.833,111.5 284.5,111.833 284.5,112.5C 282.926,114.102 282.259,116.102 282.5,118.5C 279.975,120.875 277.975,123.709 276.5,127C 267.606,125.8 258.606,125.467 249.5,126C 246.428,126.578 243.761,127.745 241.5,129.5C 237.733,131.279 235.4,134.279 234.5,138.5C 233.532,140.607 233.198,142.941 233.5,145.5C 227.204,144.506 220.87,143.84 214.5,143.5C 210.286,142.298 205.952,141.631 201.5,141.5C 200.791,140.596 199.791,140.263 198.5,140.5C 198.054,143.01 198.72,145.01 200.5,146.5C 201.011,149.022 202.011,151.355 203.5,153.5C 203.502,157.165 204.835,160.165 207.5,162.5C 207.752,166.327 209.085,169.66 211.5,172.5C 213.153,175.759 214.819,179.093 216.5,182.5C 216.259,184.898 216.926,186.898 218.5,188.5C 219.401,189.29 220.068,190.29 220.5,191.5C 220.202,195.601 221.868,198.267 225.5,199.5C 241.939,200.577 258.272,202.244 274.5,204.5C 275.609,205.29 276.942,205.79 278.5,206C 283.823,206.499 289.156,206.666 294.5,206.5C 295.167,206.5 295.833,206.5 296.5,206.5C 301.269,207.889 306.269,208.556 311.5,208.5C 313.833,208.5 316.167,208.5 318.5,208.5C 318.741,206.102 318.074,204.102 316.5,202.5C 309.553,187.607 302.886,172.607 296.5,157.5C 297.11,156.609 297.443,155.609 297.5,154.5C 298.16,153.036 298.493,151.369 298.5,149.5C 298.684,146.795 298.017,144.462 296.5,142.5C 296.369,141.624 296.702,140.957 297.5,140.5C 299.747,141.374 302.08,141.708 304.5,141.5C 309.076,146.759 312.409,152.759 314.5,159.5C 314.755,161.967 315.755,163.967 317.5,165.5C 323.401,177.185 328.734,189.185 333.5,201.5C 333.427,203.027 334.094,204.027 335.5,204.5C 337.32,208.14 339.153,211.807 341,215.5C 341.667,218.167 341.667,220.833 341,223.5C 340.292,224.381 339.458,225.047 338.5,225.5C 331.146,225.521 323.813,225.187 316.5,224.5C 314.735,223.539 312.735,223.205 310.5,223.5C 310.5,227.167 310.5,230.833 310.5,234.5C 310.667,258.169 310.5,281.836 310,305.5C 308.457,307.378 306.624,308.878 304.5,310C 299.445,311.11 294.445,312.276 289.5,313.5C 286.572,313.565 283.905,314.232 281.5,315.5C 281.167,315.5 280.833,315.5 280.5,315.5C 276.2,315.755 272.2,316.755 268.5,318.5C 264.36,318.529 260.36,319.196 256.5,320.5C 253.848,320.41 251.515,321.076 249.5,322.5C 245.36,322.529 241.36,323.196 237.5,324.5C 233.015,325.34 228.681,326.34 224.5,327.5C 224.167,327.5 223.833,327.5 223.5,327.5C 219.2,327.755 215.2,328.755 211.5,330.5C 211.167,330.5 210.833,330.5 210.5,330.5C 205.273,330.978 200.273,331.978 195.5,333.5C 191.177,334.164 186.843,334.831 182.5,335.5C 178.793,334.989 175.126,334.322 171.5,333.5C 170.833,333.5 170.167,333.5 169.5,333.5C 163.395,331.644 157.062,330.311 150.5,329.5C 142.744,327.232 134.744,325.566 126.5,324.5C 122.774,322.87 118.774,321.87 114.5,321.5C 108.98,319.704 103.313,318.704 97.5,318.5C 88.086,315.731 78.4193,313.398 68.5,311.5C 67.8333,311.5 67.1667,311.5 66.5,311.5C 65.0697,310.463 63.403,309.796 61.5,309.5C 60.2719,308.694 59.2719,307.694 58.5,306.5C 58.2424,278.832 57.9091,251.166 57.5,223.5C 48.1768,224.299 38.8434,224.966 29.5,225.5C 28.2719,224.694 27.2719,223.694 26.5,222.5C 26.448,220.097 26.7814,217.764 27.5,215.5C 27.5,215.167 27.5,214.833 27.5,214.5C 30.3966,209.833 32.7299,204.833 34.5,199.5C 35.9063,199.027 36.573,198.027 36.5,196.5C 36.5,196.167 36.5,195.833 36.5,195.5C 38.2451,193.967 39.2451,191.967 39.5,189.5C 41.6162,186.03 43.2829,182.363 44.5,178.5C 45.1098,177.609 45.4431,176.609 45.5,175.5C 46.9063,175.027 47.573,174.027 47.5,172.5C 47.5,172.167 47.5,171.833 47.5,171.5C 49.5786,168.889 50.9119,165.889 51.5,162.5C 51.8333,161.833 52.1667,161.167 52.5,160.5C 54.5334,157.269 56.2001,153.769 57.5,150C 57.0057,147.495 55.6723,145.661 53.5,144.5C 49.7137,137.271 43.7137,133.604 35.5,133.5C 33.9731,133.427 32.9731,134.094 32.5,135.5C 30.9735,136.492 30.3068,137.992 30.5,140C 30.5143,141.385 30.8476,142.551 31.5,143.5C 32.1667,144.167 32.8333,144.833 33.5,145.5C 33.5,146.167 33.5,146.833 33.5,147.5C 34.7257,153.521 34.7257,159.521 33.5,165.5C 31.8333,166.833 30.1667,168.167 28.5,169.5C 24.2147,170.295 19.8814,170.628 15.5,170.5C 12.9066,169.246 10.5732,167.58 8.5,165.5C 8.57298,163.973 7.90632,162.973 6.5,162.5C 5.49178,160.456 4.49178,158.456 3.5,156.5C 1.28858,149.018 0.288579,141.351 0.5,133.5C 1.27132,130.546 1.93798,127.546 2.5,124.5C 3.90632,124.027 4.57298,123.027 4.5,121.5C 5.43334,118.63 7.10001,116.296 9.5,114.5C 11.5,113.167 13.1667,111.5 14.5,109.5C 18.664,108.319 22.3307,106.319 25.5,103.5C 31.5,102.167 37.5,102.167 43.5,103.5C 46.817,104.497 50.1503,105.497 53.5,106.5C 55.0326,108.245 57.0326,109.245 59.5,109.5C 60.8993,110.89 62.5659,111.89 64.5,112.5C 65.5846,114.587 67.2512,115.92 69.5,116.5C 72.4625,119.964 75.6291,123.297 79,126.5C 80.0945,128.078 80.9278,129.745 81.5,131.5C 82.5877,133.583 83.5877,135.749 84.5,138C 87.1667,138.667 89.8333,138.667 92.5,138C 93.4158,137.722 94.0825,137.222 94.5,136.5C 95.5,136.5 96.5,136.5 97.5,136.5C 97.5323,134.381 96.5323,133.048 94.5,132.5C 93.9202,130.251 92.5869,128.585 90.5,127.5C 90.6716,126.508 90.3382,125.842 89.5,125.5C 88.6743,122.515 87.341,119.849 85.5,117.5C 85.573,115.973 84.9063,114.973 83.5,114.5C 83.5,113.833 83.5,113.167 83.5,112.5C 83.573,110.973 82.9063,109.973 81.5,109.5C 81.5,108.167 81.5,106.833 81.5,105.5C 80.6351,97.5341 80.3018,89.5341 80.5,81.5C 81.1495,79.5648 81.4828,77.5648 81.5,75.5C 83.2043,72.0615 84.5376,68.3948 85.5,64.5C 86.3382,64.1583 86.6716,63.4916 86.5,62.5C 87.4584,62.0472 88.2917,61.3805 89,60.5C 89.4999,43.5033 89.6666,26.5033 89.5,9.5C 89.8417,8.66175 90.5084,8.32842 91.5,8.5 Z M 207.5,12.5 C 206.833,12.5 206.167,12.5 205.5,12.5C 204.737,11.7321 203.737,11.2321 202.5,11C 205.515,10.7991 208.515,11.1324 211.5,12C 210.207,12.49 208.873,12.6567 207.5,12.5 Z M 221.5,14.5 C 223.455,16.3258 225.788,16.8258 228.5,16C 226.26,15.023 223.927,14.523 221.5,14.5 Z M 239.5,14.5 C 237.32,15.1171 235.32,16.1171 233.5,17.5C 232.232,16.5721 230.899,16.4054 229.5,17C 233.759,19.4625 237.092,18.6292 239.5,14.5 Z M 143.5,15.5 C 141.5,16.5 139.5,17.5 137.5,18.5C 135.323,18.5861 133.323,19.2528 131.5,20.5C 129.067,17.5448 126.067,15.5448 122.5,14.5C 122.119,13.0689 121.119,12.2355 119.5,12C 120.167,11.8333 120.833,11.6667 121.5,11.5C 125.252,13.8988 129.252,15.8988 133.5,17.5C 136.757,16.4486 140.09,15.7819 143.5,15.5 Z M 108.5,23.5 C 110.048,26.443 112.382,27.443 115.5,26.5C 113.574,24.7556 111.24,23.7556 108.5,23.5 Z M 103.5,24.5 C 103.369,25.2389 103.536,25.9056 104,26.5C 107.41,25.1259 107.243,24.4592 103.5,24.5 Z M 256.5,22.5 C 259.111,23.3513 261.777,23.518 264.5,23C 263.692,23.3076 263.025,23.8076 262.5,24.5C 263.127,25.4168 263.461,26.4168 263.5,27.5C 261.958,26.6993 260.292,26.366 258.5,26.5C 247.739,28.1713 247.072,26.838 256.5,22.5 Z M 263.5,27.5 C 263.335,30.8499 263.502,34.1832 264,37.5C 264.287,35.1093 264.787,32.7759 265.5,30.5C 265.058,29.2613 264.391,28.2613 263.5,27.5 Z M 80.5,115.5 C 81.0138,117.512 81.1805,119.512 81,121.5C 80.0766,120.241 79.2432,118.908 78.5,117.5C 77.8333,117.833 77.1667,118.167 76.5,118.5C 73.9819,115.424 70.9819,113.09 67.5,111.5C 65.9737,108.824 63.6404,106.991 60.5,106C 61,105.833 61.5,105.667 62,105.5C 66.8278,108.102 71.9945,109.102 77.5,108.5C 77.5516,111.346 78.5516,113.68 80.5,115.5 Z M 82.5,122.5 C 85.2226,125.586 87.7226,128.92 90,132.5C 90.6877,133.332 90.521,133.998 89.5,134.5C 85.5206,131.507 83.1873,127.507 82.5,122.5 Z M 36.5,137.5 C 38.604,137.201 40.604,137.534 42.5,138.5C 43.9397,139.952 45.6064,140.952 47.5,141.5C 48.7588,143.604 50.2588,145.604 52,147.5C 52.8258,150.212 52.3258,152.545 50.5,154.5C 50.6621,152.473 50.4955,150.473 50,148.5C 45.4821,144.684 40.9821,141.017 36.5,137.5 Z M 39.5,152.5 C 39.5,152.167 39.5,151.833 39.5,151.5C 41.0229,150.254 42.0229,150.754 42.5,153C 42.3333,153.5 42.1667,154 42,154.5C 41.2917,153.619 40.4584,152.953 39.5,152.5 Z"/></g>
<g><path style="opacity:0.776" fill="#403e3b" d="M 276.5,55.5 C 275.883,55.3893 275.383,55.056 275,54.5C 274.5,39.5037 274.333,24.5037 274.5,9.5C 270.5,9.5 266.5,9.5 262.5,9.5C 264.679,8.07445 267.179,7.40778 270,7.5C 272.352,7.3049 274.352,7.97157 276,9.5C 276.5,24.8297 276.667,40.163 276.5,55.5 Z"/></g>
<g><path style="opacity:0.196" fill="#e5e2d9" d="M 101.5,6.5 C 107.768,7.19865 113.434,9.36532 118.5,13C 118.167,13.3333 117.833,13.6667 117.5,14C 119.134,14.4935 120.801,14.6602 122.5,14.5C 126.067,15.5448 129.067,17.5448 131.5,20.5C 133.323,19.2528 135.323,18.5861 137.5,18.5C 142.365,18.408 146.699,17.0747 150.5,14.5C 154.045,15.2579 157.378,14.5912 160.5,12.5C 175.501,11.222 190.501,11.222 205.5,12.5C 206.167,12.5 206.833,12.5 207.5,12.5C 209.049,14.4054 210.882,14.7387 213,13.5C 215.682,15.585 218.516,17.2517 221.5,18.5C 200.998,13.3864 180.331,12.3864 159.5,15.5C 156.848,15.4095 154.515,16.0762 152.5,17.5C 152.167,17.5 151.833,17.5 151.5,17.5C 145.834,18.3904 140.5,20.057 135.5,22.5C 133.545,23.3235 131.545,23.4901 129.5,23C 124.503,19.1661 119.17,15.8328 113.5,13C 106.554,9.59686 99.2211,8.09686 91.5,8.5C 94.3373,6.59771 97.6707,5.93104 101.5,6.5 Z M 143.5,15.5 C 141.5,16.5 139.5,17.5 137.5,18.5C 135.323,18.5861 133.323,19.2528 131.5,20.5C 129.067,17.5448 126.067,15.5448 122.5,14.5C 122.119,13.0689 121.119,12.2355 119.5,12C 120.167,11.8333 120.833,11.6667 121.5,11.5C 125.252,13.8988 129.252,15.8988 133.5,17.5C 136.757,16.4486 140.09,15.7819 143.5,15.5 Z"/></g>
<g><path style="opacity:0.776" fill="#474542" d="M 159.5,15.5 C 157.485,16.9238 155.152,17.5905 152.5,17.5C 154.515,16.0762 156.848,15.4095 159.5,15.5 Z"/></g>
<g><path style="opacity:0.009" fill="#faf8f3" d="M 118.5,23.5 C 118.389,24.1174 118.056,24.6174 117.5,25C 120.063,27.5303 122.897,29.697 126,31.5C 126.483,32.448 126.649,33.448 126.5,34.5C 125.167,35.1667 123.833,35.8333 122.5,36.5C 120.726,35.6304 119.393,34.297 118.5,32.5C 117.86,29.3178 116.86,28.9845 115.5,31.5C 112.875,32.9239 110.542,32.5906 108.5,30.5C 108.44,29.9569 108.107,29.6236 107.5,29.5C 106.52,32.0865 106.187,34.7531 106.5,37.5C 105.833,37.8333 105.167,38.1667 104.5,38.5C 104.665,35.4816 104.498,32.4816 104,29.5C 103.766,33.3142 102.932,36.9808 101.5,40.5C 103.035,44.0964 101.869,46.4298 98,47.5C 97.5002,38.1726 97.3335,28.8393 97.5,19.5C 104.562,21.2396 111.562,22.5729 118.5,23.5 Z M 108.5,23.5 C 110.048,26.443 112.382,27.443 115.5,26.5C 113.574,24.7556 111.24,23.7556 108.5,23.5 Z M 103.5,24.5 C 103.369,25.2389 103.536,25.9056 104,26.5C 107.41,25.1259 107.243,24.4592 103.5,24.5 Z"/></g>
<g><path style="opacity:0.816" fill="#403f3b" d="M 151.5,17.5 C 146.5,19.943 141.166,21.6096 135.5,22.5C 140.5,20.057 145.834,18.3904 151.5,17.5 Z"/></g>
<g><path style="opacity:0.298" fill="#b7b4ae" d="M 258.5,18.5 C 255.916,20.4725 252.916,21.4725 249.5,21.5C 252.145,19.6896 255.145,18.6896 258.5,18.5 Z"/></g>
<g><path style="opacity:0.25" fill="#d0cdc5" d="M 118.5,23.5 C 111.562,22.5729 104.562,21.2396 97.5,19.5C 97.3335,28.8393 97.5002,38.1726 98,47.5C 101.869,46.4298 103.035,44.0964 101.5,40.5C 102.932,36.9808 103.766,33.3142 104,29.5C 104.498,32.4816 104.665,35.4816 104.5,38.5C 104.477,40.5996 105.144,42.4329 106.5,44C 103.935,46.2022 101.102,48.0356 98,49.5C 97.228,49.3552 96.5613,49.0219 96,48.5C 95.1678,38.4834 95.3344,28.4834 96.5,18.5C 104.624,17.0326 111.958,18.6993 118.5,23.5 Z"/></g>
<g><path style="opacity:0.149" fill="#d6d4cd" d="M 118.5,23.5 C 123.049,24.9428 126.049,27.9428 127.5,32.5C 127.457,33.4164 127.124,34.0831 126.5,34.5C 126.649,33.448 126.483,32.448 126,31.5C 122.897,29.697 120.063,27.5303 117.5,25C 118.056,24.6174 118.389,24.1174 118.5,23.5 Z"/></g>
<g><path style="opacity:0.192" fill="#edebe3" d="M 259.5,37.5 C 259.813,34.7531 259.48,32.0865 258.5,29.5C 257.893,29.6236 257.56,29.9569 257.5,30.5C 255.685,31.6298 253.685,32.2964 251.5,32.5C 250.833,32.5 250.5,32.1667 250.5,31.5C 249.26,29.0155 248.26,29.0155 247.5,31.5C 246.509,33.4823 245.509,35.4823 244.5,37.5C 243.261,37.0576 242.261,36.3909 241.5,35.5C 239.27,33.4649 238.937,31.1316 240.5,28.5C 242.637,25.027 245.637,22.6936 249.5,21.5C 252.916,21.4725 255.916,20.4725 258.5,18.5C 261.803,17.174 265.136,17.174 268.5,18.5C 269.818,28.7275 269.818,38.8942 268.5,49C 265.222,49.117 262.389,47.9503 260,45.5C 260.518,42.7773 260.351,40.1106 259.5,37.5 Z M 256.5,22.5 C 259.111,23.3513 261.777,23.518 264.5,23C 263.692,23.3076 263.025,23.8076 262.5,24.5C 263.127,25.4168 263.461,26.4168 263.5,27.5C 261.958,26.6993 260.292,26.366 258.5,26.5C 247.739,28.1713 247.072,26.838 256.5,22.5 Z M 263.5,27.5 C 263.335,30.8499 263.502,34.1832 264,37.5C 264.287,35.1093 264.787,32.7759 265.5,30.5C 265.058,29.2613 264.391,28.2613 263.5,27.5 Z"/></g>
<g><path style="opacity:0.008" fill="#fefffe" d="M 258.5,26.5 C 260.292,26.366 261.958,26.6993 263.5,27.5C 263.461,26.4168 263.127,25.4168 262.5,24.5C 263.025,23.8076 263.692,23.3076 264.5,23C 261.777,23.518 259.111,23.3513 256.5,22.5C 259.507,20.8255 262.84,20.1588 266.5,20.5C 266.5,28.8333 266.5,37.1667 266.5,45.5C 264.641,45.5391 263.308,44.7058 262.5,43C 262.526,39.3592 262.526,35.6925 262.5,32C 261.993,29.4547 260.659,27.6214 258.5,26.5 Z M 263.5,27.5 C 263.335,30.8499 263.502,34.1832 264,37.5C 264.287,35.1093 264.787,32.7759 265.5,30.5C 265.058,29.2613 264.391,28.2613 263.5,27.5 Z"/></g>
<g><path style="opacity:0.58" fill="#65645f" d="M 118.5,32.5 C 117.609,31.8902 116.609,31.5569 115.5,31.5C 116.86,28.9845 117.86,29.3178 118.5,32.5 Z"/></g>
<g><path style="opacity:0.51" fill="#5f5e5c" d="M 250.5,31.5 C 249.5,31.5 248.5,31.5 247.5,31.5C 248.26,29.0155 249.26,29.0155 250.5,31.5 Z"/></g>
<g><path style="opacity:0.776" fill="#3f3d3b" d="M 257.5,30.5 C 258.468,32.6074 258.802,34.9407 258.5,37.5C 257.691,35.7078 257.191,33.7078 257,31.5C 255.322,33.5532 253.489,33.8866 251.5,32.5C 253.685,32.2964 255.685,31.6298 257.5,30.5 Z"/></g>
<g><path style="opacity:0.455" fill="#a09e9b" d="M 240.5,28.5 C 238.937,31.1316 239.27,33.4649 241.5,35.5C 236.523,33.8694 236.189,31.5361 240.5,28.5 Z"/></g>
<g><path style="opacity:0.698" fill="#6d6c6a" d="M 108.5,30.5 C 107.833,32.8333 107.167,35.1667 106.5,37.5C 106.187,34.7531 106.52,32.0865 107.5,29.5C 108.107,29.6236 108.44,29.9569 108.5,30.5 Z"/></g>
<g><path style="opacity:0.251" fill="#a6a29b" d="M 89.5,9.5 C 89.6666,26.5033 89.4999,43.5033 89,60.5C 88.2917,61.3805 87.4584,62.0472 86.5,62.5C 86.5,61.8333 86.5,61.1667 86.5,60.5C 87.1174,60.3893 87.6174,60.056 88,59.5C 88.1685,42.6616 88.6685,25.995 89.5,9.5 Z"/></g>
<g><path style="opacity:0.682" fill="#93918d" d="M 257.5,30.5 C 257.56,29.9569 257.893,29.6236 258.5,29.5C 259.48,32.0865 259.813,34.7531 259.5,37.5C 259.167,37.5 258.833,37.5 258.5,37.5C 258.802,34.9407 258.468,32.6074 257.5,30.5 Z"/></g>
<g><path style="opacity:0.91" fill="#757371" d="M 118.5,32.5 C 119.393,34.297 120.726,35.6304 122.5,36.5C 119.172,37.8505 117.839,36.5172 118.5,32.5 Z"/></g>
<g><path style="opacity:0.165" fill="#f0ece3" d="M 263.5,5.5 C 267.514,5.33449 271.514,5.50115 275.5,6C 276,6.5 276.5,7 277,7.5C 277.167,19.8468 277.667,32.1801 278.5,44.5C 279.304,51.0052 280.637,57.3385 282.5,63.5C 281.5,62.1667 280.5,60.8333 279.5,59.5C 279.262,57.5956 278.262,56.2623 276.5,55.5C 276.667,40.163 276.5,24.8297 276,9.5C 274.352,7.97157 272.352,7.3049 270,7.5C 267.179,7.40778 264.679,8.07445 262.5,9.5C 258.327,9.6667 254.66,11 251.5,13.5C 249.5,14.1667 247.5,14.8333 245.5,15.5C 245.5,14.5 245.5,13.5 245.5,12.5C 247.199,12.6602 248.866,12.4935 250.5,12C 254.561,9.15518 258.894,6.98851 263.5,5.5 Z"/></g>
<g><path style="opacity:0.855" fill="#393835" d="M 262.5,9.5 C 259.2,11.6418 255.533,12.9751 251.5,13.5C 254.66,11 258.327,9.6667 262.5,9.5 Z"/></g>
<g><path style="opacity:0.037" fill="#faf7e8" d="M 101.5,5.5 C 101.5,5.83333 101.5,6.16667 101.5,6.5C 97.6707,5.93104 94.3373,6.59771 91.5,8.5C 90.5084,8.32842 89.8417,8.66175 89.5,9.5C 88.6685,25.995 88.1685,42.6616 88,59.5C 87.6174,60.056 87.1174,60.3893 86.5,60.5C 86.4531,43.3159 86.4531,25.9825 86.5,8.5C 91.035,5.77267 96.035,4.77267 101.5,5.5 Z"/></g>
<g><path style="opacity:0.651" fill="#5e5c57" d="M 276.5,55.5 C 278.262,56.2623 279.262,57.5956 279.5,59.5C 277.738,58.7377 276.738,57.4044 276.5,55.5 Z"/></g>
<g><path style="opacity:0.349" fill="#999691" d="M 85.5,64.5 C 84.5376,68.3948 83.2043,72.0615 81.5,75.5C 80.6572,70.9057 81.9906,67.2391 85.5,64.5 Z"/></g>
<g><path style="opacity:0.925" fill="#3a3a38" d="M 126.5,79.5 C 126.5,78.8333 126.167,78.5 125.5,78.5C 128.559,74.6457 132.559,72.8124 137.5,73C 133.445,74.5644 129.779,76.7311 126.5,79.5 Z"/></g>
<g><path style="opacity:0.992" fill="#373634" d="M 240.5,77.5 C 239.833,77.5 239.5,77.8333 239.5,78.5C 237.05,77.2235 234.717,75.7235 232.5,74C 235.76,73.7965 238.427,74.9632 240.5,77.5 Z"/></g>
<g><path style="opacity:0.988" fill="#4c4b4a" d="M 160.5,81.5 C 159.833,81.5 159.5,81.8333 159.5,82.5C 156.28,79.1169 152.614,76.2835 148.5,74C 153.518,74.6852 157.518,77.1852 160.5,81.5 Z"/></g>
<g><path style="opacity:0.608" fill="#817e7a" d="M 81.5,75.5 C 81.4828,77.5648 81.1495,79.5648 80.5,81.5C 80.1667,81.5 79.8333,81.5 79.5,81.5C 79.2594,79.1016 79.9261,77.1016 81.5,75.5 Z"/></g>
<g><path style="opacity:0.961" fill="#474543" d="M 223.5,83.5 C 224.919,82.5489 226.585,82.2155 228.5,82.5C 228.784,84.4147 228.451,86.0813 227.5,87.5C 227.5,86.1667 227.5,84.8333 227.5,83.5C 226.167,83.5 224.833,83.5 223.5,83.5 Z"/></g>
<g><path style="opacity:0.988" fill="#61615f" d="M 205.5,98.5 C 204.833,94.5 204.167,90.5 203.5,86.5C 204.477,83.0108 206.477,80.1775 209.5,78C 210.332,77.3123 210.998,77.479 211.5,78.5C 209.476,80.6898 207.643,83.0232 206,85.5C 205.501,89.8206 205.334,94.1539 205.5,98.5 Z"/></g>
<g><path style="opacity:0.784" fill="#686764" d="M 125.5,78.5 C 126.167,78.5 126.5,78.8333 126.5,79.5C 124.306,81.8997 122.639,84.5664 121.5,87.5C 121.591,85.3023 120.925,84.9689 119.5,86.5C 120.529,83.1092 122.529,80.4426 125.5,78.5 Z"/></g>
<g><path style="opacity:0.741" fill="#868583" d="M 142.5,83.5 C 140.748,83.4176 139.748,84.2509 139.5,86C 139.748,87.7491 140.748,88.5824 142.5,88.5C 140.012,89.9177 138.346,89.0844 137.5,86C 138.346,82.9156 140.012,82.0823 142.5,83.5 Z"/></g>
<g><path style="opacity:0.49" fill="#d9d8d7" d="M 142.5,83.5 C 145.167,85.1667 145.167,86.8333 142.5,88.5C 140.748,88.5824 139.748,87.7491 139.5,86C 139.748,84.2509 140.748,83.4176 142.5,83.5 Z"/></g>
<g><path style="opacity:0.961" fill="#848482" d="M 160.5,81.5 C 165.282,87.177 166.615,93.5103 164.5,100.5C 164.664,97.8127 164.497,95.146 164,92.5C 163.79,94.0581 163.29,95.3915 162.5,96.5C 162.795,94.2646 162.461,92.2646 161.5,90.5C 161.416,87.6726 160.75,85.006 159.5,82.5C 159.5,81.8333 159.833,81.5 160.5,81.5 Z"/></g>
<g><path style="opacity:0.749" fill="#d7d6d5" d="M 223.5,83.5 C 224.833,83.5 226.167,83.5 227.5,83.5C 227.5,84.8333 227.5,86.1667 227.5,87.5C 227.5,88.1667 227.167,88.5 226.5,88.5C 225.167,88.5 223.833,88.5 222.5,88.5C 222.5,87.1667 222.5,85.8333 222.5,84.5C 222.5,83.8333 222.833,83.5 223.5,83.5 Z"/></g>
<g><path style="opacity:0.682" fill="#53524e" d="M 79.5,81.5 C 79.8333,81.5 80.1667,81.5 80.5,81.5C 80.3018,89.5341 80.6351,97.5341 81.5,105.5C 80.8333,104.5 80.1667,103.5 79.5,102.5C 78.2529,95.4796 78.2529,88.4796 79.5,81.5 Z"/></g>
<g><path style="opacity:0.984" fill="#464543" d="M 222.5,84.5 C 222.5,85.8333 222.5,87.1667 222.5,88.5C 223.833,88.5 225.167,88.5 226.5,88.5C 225.081,89.4511 223.415,89.7845 221.5,89.5C 221.216,87.5853 221.549,85.9187 222.5,84.5 Z"/></g>
<g><path style="opacity:0.969" fill="#9c9c9a" d="M 149.5,88.5 C 150.5,88.5 151.5,88.5 152.5,88.5C 152.5,89.8333 152.5,91.1667 152.5,92.5C 149.046,92.7332 148.046,91.3999 149.5,88.5 Z"/></g>
<g><path style="opacity:0.965" fill="#a6a5a4" d="M 233.5,88.5 C 234.5,88.5 235.5,88.5 236.5,88.5C 236.5,89.8333 236.5,91.1667 236.5,92.5C 235.5,92.5 234.5,92.5 233.5,92.5C 233.5,91.1667 233.5,89.8333 233.5,88.5 Z"/></g>
<g><path style="opacity:0.675" fill="#52504d" d="M 121.5,88.5 C 121.353,93.2142 121.686,97.8809 122.5,102.5C 120.953,100.193 120.287,97.5267 120.5,94.5C 120.505,92.3035 120.838,90.3035 121.5,88.5 Z"/></g>
<g><path style="opacity:0.792" fill="#c3c2bf" d="M 247.5,88.5 C 249.047,94.374 248.713,100.041 246.5,105.5C 246.737,104.209 246.404,103.209 245.5,102.5C 245.911,97.6616 246.578,92.9949 247.5,88.5 Z"/></g>
<g><path style="opacity:0.992" fill="#444342" d="M 161.5,90.5 C 162.461,92.2646 162.795,94.2646 162.5,96.5C 162.34,98.153 161.674,99.4863 160.5,100.5C 161.207,97.2139 161.54,93.8806 161.5,90.5 Z"/></g>
<g><path style="opacity:0.861" fill="#5b5957" d="M 240.5,77.5 C 244.052,80.3865 246.385,84.0532 247.5,88.5C 246.578,92.9949 245.911,97.6616 245.5,102.5C 244.833,102.5 244.5,102.833 244.5,103.5C 244.167,103.5 243.833,103.5 243.5,103.5C 247.299,94.1864 245.966,85.8531 239.5,78.5C 239.5,77.8333 239.833,77.5 240.5,77.5 Z"/></g>
<g><path style="opacity:0.686" fill="#504e4b" d="M 283.5,67.5 C 286.565,73.3789 288.232,79.7122 288.5,86.5C 288.821,91.6946 288.487,96.6946 287.5,101.5C 287.666,94.4921 287.5,87.4921 287,80.5C 285.316,76.2845 284.149,71.9512 283.5,67.5 Z"/></g>
<g><path style="opacity:0.976" fill="#b6b6b5" d="M 203.5,86.5 C 204.167,90.5 204.833,94.5 205.5,98.5C 205.629,100.216 205.962,101.883 206.5,103.5C 205.034,102.653 204.2,101.32 204,99.5C 203.51,100.793 203.343,102.127 203.5,103.5C 203.167,103.5 202.833,103.5 202.5,103.5C 202.5,98.5 202.5,93.5 202.5,88.5C 202.328,87.5084 202.662,86.8417 203.5,86.5 Z"/></g>
<g><path style="opacity:0.257" fill="#8f8c87" d="M 40.5,101.5 C 41.5,102.167 42.5,102.833 43.5,103.5C 37.5,102.167 31.5,102.167 25.5,103.5C 26.2625,102.732 27.2625,102.232 28.5,102C 32.4862,101.501 36.4862,101.334 40.5,101.5 Z"/></g>
<g><path style="opacity:0.992" fill="#434341" d="M 202.5,88.5 C 202.5,93.5 202.5,98.5 202.5,103.5C 199.913,98.4835 199.913,93.4835 202.5,88.5 Z"/></g>
<g><path style="opacity:0.176" fill="#cecbc4" d="M 288.5,86.5 C 289.213,91.368 289.879,96.368 290.5,101.5C 289.805,104.28 288.805,106.947 287.5,109.5C 287.043,110.298 286.376,110.631 285.5,110.5C 286.406,107.564 287.072,104.564 287.5,101.5C 288.487,96.6946 288.821,91.6946 288.5,86.5 Z"/></g>
<g><path style="opacity:0.98" fill="#cecece" d="M 164.5,100.5 C 163.5,103.167 162.5,105.833 161.5,108.5C 160.094,108.973 159.427,109.973 159.5,111.5C 158.5,112.167 157.5,112.833 156.5,113.5C 156.715,111.821 156.048,110.821 154.5,110.5C 157.536,107.757 159.536,104.424 160.5,100.5C 161.674,99.4863 162.34,98.153 162.5,96.5C 163.29,95.3915 163.79,94.0581 164,92.5C 164.497,95.146 164.664,97.8127 164.5,100.5 Z"/></g>
<g><path style="opacity:0.067" fill="#d9d6cd" d="M 40.5,101.5 C 43.3128,101.548 45.9795,102.215 48.5,103.5C 49.1667,103.167 49.8333,102.833 50.5,102.5C 51.4991,105.174 53.1658,105.841 55.5,104.5C 59.5965,106.031 62.5965,108.697 64.5,112.5C 62.5659,111.89 60.8993,110.89 59.5,109.5C 57.9674,107.755 55.9674,106.755 53.5,106.5C 50.1503,105.497 46.817,104.497 43.5,103.5C 42.5,102.833 41.5,102.167 40.5,101.5 Z"/></g>
<g><path style="opacity:0.937" fill="#4b4946" d="M 25.5,103.5 C 22.3307,106.319 18.664,108.319 14.5,109.5C 17.4496,106.192 21.1163,104.192 25.5,103.5 Z"/></g>
<g><path style="opacity:0.516" fill="#c7c6c4" d="M 121.5,87.5 C 121.5,87.8333 121.5,88.1667 121.5,88.5C 120.838,90.3035 120.505,92.3035 120.5,94.5C 120.287,97.5267 120.953,100.193 122.5,102.5C 123.82,104.463 125.154,106.463 126.5,108.5C 124.821,108.285 123.821,108.952 123.5,110.5C 118.571,103.265 117.238,95.265 119.5,86.5C 120.925,84.9689 121.591,85.3023 121.5,87.5 Z"/></g>
<g><path style="opacity:0.455" fill="#908d89" d="M 53.5,106.5 C 55.9674,106.755 57.9674,107.755 59.5,109.5C 57.0326,109.245 55.0326,108.245 53.5,106.5 Z"/></g>
<g><path style="opacity:0.212" fill="#bcb9b3" d="M 79.5,102.5 C 80.1667,103.5 80.8333,104.5 81.5,105.5C 81.5,106.833 81.5,108.167 81.5,109.5C 81.427,111.027 82.0937,112.027 83.5,112.5C 83.5,113.167 83.5,113.833 83.5,114.5C 82.8333,114.167 82.1667,113.833 81.5,113.5C 80.5147,109.924 79.848,106.258 79.5,102.5 Z"/></g>
<g><path style="opacity:0.989" fill="#f3f3f3" d="M 179.5,107.5 C 183.516,106.9 187.016,107.9 190,110.5C 191.578,115.118 190.078,118.118 185.5,119.5C 183.801,119.66 182.134,119.494 180.5,119C 179.529,117.519 178.196,116.685 176.5,116.5C 175.833,116.5 175.5,116.167 175.5,115.5C 175.343,114.127 175.51,112.793 176,111.5C 177.376,110.295 178.542,108.962 179.5,107.5 Z"/></g>
<g><path style="opacity:0.992" fill="#5e5d5b" d="M 161.5,108.5 C 161.573,110.027 160.906,111.027 159.5,111.5C 159.427,109.973 160.094,108.973 161.5,108.5 Z"/></g>
<g><path style="opacity:0.706" fill="#706d69" d="M 81.5,109.5 C 82.9063,109.973 83.573,110.973 83.5,112.5C 82.0937,112.027 81.427,111.027 81.5,109.5 Z"/></g>
<g><path style="opacity:0.87" fill="#e1e0e0" d="M 126.5,108.5 C 127.637,109.789 128.97,110.789 130.5,111.5C 132.426,113.293 134.759,114.293 137.5,114.5C 140.976,115.643 144.642,115.81 148.5,115C 150.859,113.758 152.859,112.258 154.5,110.5C 156.048,110.821 156.715,111.821 156.5,113.5C 144.454,122.358 133.454,121.358 123.5,110.5C 123.821,108.952 124.821,108.285 126.5,108.5 Z"/></g>
<g><path style="opacity:0.776" fill="#53524f" d="M 246.5,105.5 C 245.723,110.283 243.057,113.617 238.5,115.5C 241.605,112.408 244.271,109.075 246.5,105.5 Z"/></g>
<g><path style="opacity:0.71" fill="#5f5e59" d="M 14.5,109.5 C 13.1667,111.5 11.5,113.167 9.5,114.5C 10.1667,111.833 11.8333,110.167 14.5,109.5 Z"/></g>
<g><path style="opacity:0.322" fill="#a5a29c" d="M 64.5,112.5 C 64.8333,112.5 65.1667,112.5 65.5,112.5C 67.1667,113.5 68.5,114.833 69.5,116.5C 67.2512,115.92 65.5846,114.587 64.5,112.5 Z"/></g>
<g><path style="opacity:0.513" fill="#e3e2e0" d="M 206.5,103.5 C 207.338,103.842 207.672,104.508 207.5,105.5C 208.5,108.5 210.5,110.5 213.5,111.5C 215.684,113.585 218.351,114.585 221.5,114.5C 223.833,114.5 226.167,114.5 228.5,114.5C 231.636,114.397 234.302,113.397 236.5,111.5C 236.833,111.5 237.167,111.5 237.5,111.5C 241.217,110.08 243.55,107.413 244.5,103.5C 244.5,102.833 244.833,102.5 245.5,102.5C 246.404,103.209 246.737,104.209 246.5,105.5C 244.271,109.075 241.605,112.408 238.5,115.5C 237.391,115.557 236.391,115.89 235.5,116.5C 233.62,116.229 232.287,116.896 231.5,118.5C 229.422,119.101 227.255,119.434 225,119.5C 222.134,119.7 219.634,119.033 217.5,117.5C 215.544,116.508 213.544,115.508 211.5,114.5C 207.623,111.758 204.956,108.091 203.5,103.5C 203.343,102.127 203.51,100.793 204,99.5C 204.2,101.32 205.034,102.653 206.5,103.5 Z"/></g>
<g><path style="opacity:0.949" fill="#4f4e4b" d="M 213.5,111.5 C 216.649,111.415 219.316,112.415 221.5,114.5C 218.351,114.585 215.684,113.585 213.5,111.5 Z"/></g>
<g><path style="opacity:0.416" fill="#a4a19c" d="M 243.5,103.5 C 243.833,103.5 244.167,103.5 244.5,103.5C 243.55,107.413 241.217,110.08 237.5,111.5C 239.885,109.116 241.885,106.45 243.5,103.5 Z"/></g>
<g><path style="opacity:0.98" fill="#9d9c9b" d="M 207.5,105.5 C 209.833,107.167 211.833,109.167 213.5,111.5C 210.5,110.5 208.5,108.5 207.5,105.5 Z"/></g>
<g><path style="opacity:0.992" fill="#393836" d="M 130.5,111.5 C 135.678,113.085 141.012,113.752 146.5,113.5C 143.713,114.477 140.713,114.81 137.5,114.5C 134.759,114.293 132.426,113.293 130.5,111.5 Z"/></g>
<g><path style="opacity:0.988" fill="#6e6d6c" d="M 179.5,107.5 C 178.542,108.962 177.376,110.295 176,111.5C 175.51,112.793 175.343,114.127 175.5,115.5C 173.568,111.387 174.902,108.72 179.5,107.5 Z"/></g>
<g><path style="opacity:0.82" fill="#5a5856" d="M 236.5,111.5 C 234.302,113.397 231.636,114.397 228.5,114.5C 230.848,112.903 233.514,111.903 236.5,111.5 Z"/></g>
<g><path style="opacity:0.984" fill="#b7b7b6" d="M 154.5,110.5 C 152.859,112.258 150.859,113.758 148.5,115C 144.642,115.81 140.976,115.643 137.5,114.5C 140.713,114.81 143.713,114.477 146.5,113.5C 149.14,112.552 151.807,111.552 154.5,110.5 Z"/></g>
<g><path style="opacity:0.009" fill="#f6f4ee" d="M 67.5,111.5 C 70.9819,113.09 73.9819,115.424 76.5,118.5C 77.1667,118.167 77.8333,117.833 78.5,117.5C 79.2432,118.908 80.0766,120.241 81,121.5C 81.1805,119.512 81.0138,117.512 80.5,115.5C 80.3284,114.508 80.6618,113.842 81.5,113.5C 82.1667,113.833 82.8333,114.167 83.5,114.5C 83.427,116.027 84.0937,117.027 85.5,117.5C 85.8333,120.167 86.1667,122.833 86.5,125.5C 87.5,125.5 88.5,125.5 89.5,125.5C 90.3382,125.842 90.6716,126.508 90.5,127.5C 91.0798,129.749 92.4131,131.415 94.5,132.5C 94.4142,133.496 94.7476,134.329 95.5,135C 92.1727,135.61 88.8394,136.11 85.5,136.5C 84.8724,134.338 83.539,132.672 81.5,131.5C 80.9278,129.745 80.0945,128.078 79,126.5C 75.6291,123.297 72.4625,119.964 69.5,116.5C 68.5,114.833 67.1667,113.5 65.5,112.5C 65.4088,110.302 66.0755,109.969 67.5,111.5 Z M 82.5,122.5 C 83.1873,127.507 85.5206,131.507 89.5,134.5C 90.521,133.998 90.6877,133.332 90,132.5C 87.7226,128.92 85.2226,125.586 82.5,122.5 Z"/></g>
<g><path style="opacity:0.831" fill="#9a9997" d="M 211.5,114.5 C 213.544,115.508 215.544,116.508 217.5,117.5C 214.687,117.975 212.687,116.975 211.5,114.5 Z"/></g>
<g><path style="opacity:0.306" fill="#8f8c88" d="M 284.5,112.5 C 284.741,114.898 284.074,116.898 282.5,118.5C 282.259,116.102 282.926,114.102 284.5,112.5 Z"/></g>
<g><path style="opacity:0.537" fill="#75726d" d="M 83.5,114.5 C 84.9063,114.973 85.573,115.973 85.5,117.5C 84.0937,117.027 83.427,116.027 83.5,114.5 Z"/></g>
<g><path style="opacity:0.816" fill="#898785" d="M 235.5,116.5 C 234.486,117.674 233.153,118.34 231.5,118.5C 232.287,116.896 233.62,116.229 235.5,116.5 Z"/></g>
<g><path style="opacity:0.984" fill="#a9a8a8" d="M 176.5,116.5 C 178.196,116.685 179.529,117.519 180.5,119C 182.134,119.494 183.801,119.66 185.5,119.5C 181.649,121.348 178.649,120.348 176.5,116.5 Z"/></g>
<g><path style="opacity:0.494" fill="#7b7974" d="M 4.5,121.5 C 4.57298,123.027 3.90632,124.027 2.5,124.5C 2.42702,122.973 3.09368,121.973 4.5,121.5 Z"/></g>
<g><path style="opacity:0.086" fill="#c4bfba" d="M 85.5,117.5 C 87.341,119.849 88.6743,122.515 89.5,125.5C 88.5,125.5 87.5,125.5 86.5,125.5C 86.1667,122.833 85.8333,120.167 85.5,117.5 Z"/></g>
<g><path style="opacity:0.138" fill="#e2ded7" d="M 285.5,111.5 C 286.765,116.118 285.599,120.118 282,123.5C 281.51,124.793 281.343,126.127 281.5,127.5C 279.468,128.048 278.468,129.381 278.5,131.5C 282.105,131.799 285.439,132.965 288.5,135C 289.893,136.171 290.727,137.671 291,139.5C 291.333,138.833 291.667,138.167 292,137.5C 292.71,138.973 293.876,139.64 295.5,139.5C 295.263,140.791 295.596,141.791 296.5,142.5C 297.162,146.466 297.495,150.466 297.5,154.5C 297.443,155.609 297.11,156.609 296.5,157.5C 292.901,160.07 288.901,161.737 284.5,162.5C 278.484,162.294 272.651,161.294 267,159.5C 263.472,160.666 259.972,160.499 256.5,159C 254.317,156.65 251.984,154.483 249.5,152.5C 243.521,154.397 238.854,152.73 235.5,147.5C 235.335,144.482 235.502,141.482 236,138.5C 237.662,135.351 239.495,132.351 241.5,129.5C 243.761,127.745 246.428,126.578 249.5,126C 258.606,125.467 267.606,125.8 276.5,127C 277.975,123.709 279.975,120.875 282.5,118.5C 284.074,116.898 284.741,114.898 284.5,112.5C 284.5,111.833 284.833,111.5 285.5,111.5 Z"/></g>
<g><path style="opacity:0.31" fill="#888580" d="M 268.5,130.5 C 261.495,129.221 254.495,129.221 247.5,130.5C 250.865,128.961 254.531,128.294 258.5,128.5C 261.167,128.667 263.833,128.833 266.5,129C 267.416,129.278 268.082,129.778 268.5,130.5 Z"/></g>
<g><path style="opacity:0.396" fill="#a19e98" d="M 90.5,127.5 C 92.5869,128.585 93.9202,130.251 94.5,132.5C 92.4131,131.415 91.0798,129.749 90.5,127.5 Z"/></g>
<g><path style="opacity:0.987" fill="#151412" d="M 268.5,130.5 C 275.166,131.821 281.5,134.321 287.5,138C 289.424,139.75 291.091,141.583 292.5,143.5C 293.294,146.802 293.96,150.135 294.5,153.5C 292.162,157.739 288.495,159.739 283.5,159.5C 284.644,155.352 284.644,151.352 283.5,147.5C 282.791,146.596 281.791,146.263 280.5,146.5C 280.5,149.167 280.5,151.833 280.5,154.5C 280.5,154.833 280.5,155.167 280.5,155.5C 277.883,157.434 275.217,157.767 272.5,156.5C 272.815,152.629 272.482,148.962 271.5,145.5C 270.791,144.596 269.791,144.263 268.5,144.5C 270.672,153.325 267.339,156.991 258.5,155.5C 256.596,155.262 255.262,154.262 254.5,152.5C 253.51,149.849 252.51,147.183 251.5,144.5C 250.081,145.005 249.415,146.005 249.5,147.5C 245.757,150.428 242.424,150.095 239.5,146.5C 239.335,143.482 239.502,140.482 240,137.5C 242.372,135.297 244.539,132.963 246.5,130.5C 246.833,130.5 247.167,130.5 247.5,130.5C 254.495,129.221 261.495,129.221 268.5,130.5 Z"/></g>
<g><path style="opacity:0.431" fill="#a3a09b" d="M 241.5,129.5 C 239.495,132.351 237.662,135.351 236,138.5C 235.502,141.482 235.335,144.482 235.5,147.5C 234.833,147.5 234.5,147.167 234.5,146.5C 234.5,143.833 234.5,141.167 234.5,138.5C 235.4,134.279 237.733,131.279 241.5,129.5 Z"/></g>
<g><path style="opacity:0.373" fill="#7c7b76" d="M 35.5,133.5 C 35.0269,134.906 34.0269,135.573 32.5,135.5C 32.9731,134.094 33.9731,133.427 35.5,133.5 Z"/></g>
<g><path style="opacity:0.129" fill="#e0ddd6" d="M 35.5,133.5 C 43.7137,133.604 49.7137,137.271 53.5,144.5C 51.9468,142.615 49.9468,141.615 47.5,141.5C 45.6064,140.952 43.9397,139.952 42.5,138.5C 40.604,137.534 38.604,137.201 36.5,137.5C 34.8333,137.5 33.1667,137.5 31.5,137.5C 31.5,139.5 31.5,141.5 31.5,143.5C 30.8476,142.551 30.5143,141.385 30.5,140C 30.3068,137.992 30.9735,136.492 32.5,135.5C 34.0269,135.573 35.0269,134.906 35.5,133.5 Z"/></g>
<g><path style="opacity:0.39" fill="#aeaba5" d="M -0.5,133.5 C -0.166667,133.5 0.166667,133.5 0.5,133.5C 0.288579,141.351 1.28858,149.018 3.5,156.5C 2.88258,156.389 2.38258,156.056 2,155.5C 1.11534,152.048 0.282003,148.714 -0.5,145.5C -0.5,141.5 -0.5,137.5 -0.5,133.5 Z"/></g>
<g><path style="opacity:0.475" fill="#95938e" d="M 94.5,132.5 C 96.5323,133.048 97.5323,134.381 97.5,136.5C 96.5,136.5 95.5,136.5 94.5,136.5C 91.3273,137.368 88.3273,137.368 85.5,136.5C 88.8394,136.11 92.1727,135.61 95.5,135C 94.7476,134.329 94.4142,133.496 94.5,132.5 Z"/></g>
<g><path style="opacity:0.004" fill="#fefefe" d="M 36.5,137.5 C 40.9821,141.017 45.4821,144.684 50,148.5C 50.4955,150.473 50.6621,152.473 50.5,154.5C 47.4565,156.028 44.7898,158.194 42.5,161C 42.7355,161.873 43.0688,162.707 43.5,163.5C 41.9137,165.173 41.2471,167.173 41.5,169.5C 40.5,169.5 39.5,169.5 38.5,169.5C 38.5,170.833 38.5,172.167 38.5,173.5C 39.552,173.649 40.552,173.483 41.5,173C 43.2669,170.456 44.9336,167.956 46.5,165.5C 46.8333,167.5 47.1667,169.5 47.5,171.5C 47.5,171.833 47.5,172.167 47.5,172.5C 46.0937,172.973 45.427,173.973 45.5,175.5C 45.4431,176.609 45.1098,177.609 44.5,178.5C 39.8157,182.023 36.9823,186.69 36,192.5C 35.6174,191.944 35.1174,191.611 34.5,191.5C 34.7852,193.288 34.4519,194.955 33.5,196.5C 32.001,199.08 30.501,201.747 29,204.5C 28.6614,207.88 28.1614,211.213 27.5,214.5C 27.5,214.833 27.5,215.167 27.5,215.5C 26.0069,216.312 25.3402,217.645 25.5,219.5C 25.5195,220.726 25.8529,221.726 26.5,222.5C 26.2267,224.451 26.8934,225.951 28.5,227C 35.7724,227.308 42.939,227.475 50,227.5C 50.4643,226.906 50.631,226.239 50.5,225.5C 52.1667,225.5 53.8333,225.5 55.5,225.5C 55.3994,253.123 55.3994,280.457 55.5,307.5C 56.1667,307.167 56.8333,306.833 57.5,306.5C 57.8333,306.5 58.1667,306.5 58.5,306.5C 59.2719,307.694 60.2719,308.694 61.5,309.5C 62.6354,311.213 64.302,311.88 66.5,311.5C 67.1667,311.5 67.8333,311.5 68.5,311.5C 68.9528,312.458 69.6195,313.292 70.5,314C 79.3663,316.3 88.3663,317.8 97.5,318.5C 103.313,318.704 108.98,319.704 114.5,321.5C 118.159,323.342 122.159,324.342 126.5,324.5C 134.744,325.566 142.744,327.232 150.5,329.5C 151.167,330.5 151.833,331.5 152.5,332.5C 151.443,333.206 151.776,333.539 153.5,333.5C 153.5,333.167 153.5,332.833 153.5,332.5C 158.862,332.472 164.195,332.806 169.5,333.5C 170.167,333.5 170.833,333.5 171.5,333.5C 174.755,335.566 178.421,336.566 182.5,336.5C 186.517,336.14 190.517,335.64 194.5,335C 195.056,334.617 195.389,334.117 195.5,333.5C 200.894,333.876 205.894,332.876 210.5,330.5C 210.833,330.5 211.167,330.5 211.5,330.5C 215.983,330.468 219.983,329.468 223.5,327.5C 223.833,327.5 224.167,327.5 224.5,327.5C 226.833,327.5 229.167,327.5 231.5,327.5C 231.842,328.338 232.508,328.672 233.5,328.5C 237.576,327.239 241.743,325.906 246,324.5C 246.772,324.645 247.439,324.978 248,325.5C 252.325,323.794 256.825,322.794 261.5,322.5C 265.472,323.423 265.806,323.423 262.5,322.5C 264.988,320.612 267.988,319.945 271.5,320.5C 274.087,319.251 276.754,318.251 279.5,317.5C 279.833,317.5 280.167,317.5 280.5,317.5C 280.5,318.167 280.833,318.5 281.5,318.5C 281.918,317.778 282.584,317.278 283.5,317C 286.146,316.503 288.813,316.336 291.5,316.5C 294.171,314.882 297.171,314.215 300.5,314.5C 303.563,313.301 306.563,311.801 309.5,310C 310.126,309.25 310.626,308.416 311,307.5C 312.406,280.526 312.906,253.526 312.5,226.5C 315.5,226.5 318.5,226.5 321.5,226.5C 327.167,226.5 332.833,226.5 338.5,226.5C 340.284,226.107 341.95,225.441 343.5,224.5C 343.5,264.167 343.5,303.833 343.5,343.5C 228.833,343.5 114.167,343.5 -0.5,343.5C -0.5,280.167 -0.5,216.833 -0.5,153.5C 0.371128,156.491 1.37113,159.491 2.5,162.5C 1.29099,164.435 1.45766,166.435 3,168.5C 8.99682,175.388 16.4968,177.888 25.5,176C 26.7383,175.31 26.7383,174.81 25.5,174.5C 26.254,172.495 27.4207,171.828 29,172.5C 36.6877,167.992 40.1877,161.325 39.5,152.5C 40.4584,152.953 41.2917,153.619 42,154.5C 42.1667,154 42.3333,153.5 42.5,153C 42.0229,150.754 41.0229,150.254 39.5,151.5C 37.2729,150.599 36.2729,148.933 36.5,146.5C 37.8333,146.167 37.8333,145.833 36.5,145.5C 35.5,145.5 34.5,145.5 33.5,145.5C 32.8333,144.833 32.1667,144.167 31.5,143.5C 31.5,141.5 31.5,139.5 31.5,137.5C 33.1667,137.5 34.8333,137.5 36.5,137.5 Z M 2.5,162.5 C 5.66612,168.157 10.3328,172.323 16.5,175C 19.5547,175.634 22.5547,175.468 25.5,174.5C 26.7383,174.81 26.7383,175.31 25.5,176C 16.4968,177.888 8.99682,175.388 3,168.5C 1.45766,166.435 1.29099,164.435 2.5,162.5 Z M 39.5,175.5 C 40.2389,175.369 40.9056,175.536 41.5,176C 40.1068,177.171 39.2735,178.671 39,180.5C 38.3603,178.735 38.5269,177.068 39.5,175.5 Z M 29.5,197.5 C 30.3345,199.263 29.8345,200.93 28,202.5C 27.36,200.457 27.86,198.79 29.5,197.5 Z M 20.5,221.5 C 22.7082,222.918 23.5415,224.918 23,227.5C 21.878,225.593 21.0447,223.593 20.5,221.5 Z M 24.5,227.5 C 26.9828,227.73 27.4828,228.397 26,229.5C 24.9701,229.164 24.4701,228.497 24.5,227.5 Z M 44.5,229.5 C 46.9479,228.527 49.6146,228.194 52.5,228.5C 52.6641,231.187 52.4974,233.854 52,236.5C 51.2496,235.874 50.4162,235.374 49.5,235C 51.5268,233.604 51.8602,231.938 50.5,230C 48.5273,229.505 46.5273,229.338 44.5,229.5 Z M 335.5,230.5 C 336.251,229.427 337.251,229.26 338.5,230C 337.648,231.728 336.648,231.895 335.5,230.5 Z M 249.5,325.5 C 253.339,325.612 253.339,326.279 249.5,327.5C 248.537,327.03 248.537,326.363 249.5,325.5 Z M 229.5,329.5 C 232.598,329.413 232.932,329.913 230.5,331C 228.167,331.667 225.833,331.667 223.5,331C 225.708,330.809 227.708,330.309 229.5,329.5 Z M 139.5,331.5 C 142.405,330.299 145.405,330.466 148.5,332C 147.975,332.692 147.308,333.192 146.5,333.5C 144.271,332.423 141.937,331.756 139.5,331.5 Z M 153.5,333.5 C 156.216,333.678 158.883,334.178 161.5,335C 159.167,335.667 156.833,335.667 154.5,335C 153.944,334.617 153.611,334.117 153.5,333.5 Z"/></g>
<g><path style="opacity:0.749" fill="#363431" d="M 81.5,131.5 C 83.539,132.672 84.8724,134.338 85.5,136.5C 88.3273,137.368 91.3273,137.368 94.5,136.5C 94.0825,137.222 93.4158,137.722 92.5,138C 89.8333,138.667 87.1667,138.667 84.5,138C 83.5877,135.749 82.5877,133.583 81.5,131.5 Z"/></g>
<g><path style="opacity:0.2" fill="#c1bcb7" d="M 295.5,139.5 C 299.012,138.945 302.012,139.612 304.5,141.5C 302.08,141.708 299.747,141.374 297.5,140.5C 296.702,140.957 296.369,141.624 296.5,142.5C 295.596,141.791 295.263,140.791 295.5,139.5 Z"/></g>
<g><path style="opacity:1" fill="#634e33" d="M 167.5,146.5 C 168.038,144.883 168.371,143.216 168.5,141.5C 158.238,143.377 147.905,144.71 137.5,145.5C 147.94,143.206 158.607,141.539 169.5,140.5C 169.946,143.01 169.28,145.01 167.5,146.5 Z"/></g>
<g><path style="opacity:1" fill="#c1955f" d="M 167.5,146.5 C 166.89,147.391 166.557,148.391 166.5,149.5C 164.787,150.635 164.12,152.302 164.5,154.5C 163.02,157.388 161.687,160.388 160.5,163.5C 158.755,165.033 157.755,167.033 157.5,169.5C 156.89,170.391 156.557,171.391 156.5,172.5C 154.755,174.033 153.755,176.033 153.5,178.5C 152.89,179.391 152.557,180.391 152.5,181.5C 151.069,182.903 149.902,184.569 149,186.5C 148.51,187.793 148.343,189.127 148.5,190.5C 147.662,190.842 147.328,191.508 147.5,192.5C 145.787,193.635 145.12,195.302 145.5,197.5C 141.827,199.318 137.827,199.984 133.5,199.5C 121.975,200.4 110.642,201.733 99.5,203.5C 94.8696,204.229 90.2029,204.563 85.5,204.5C 80.2688,204.444 75.2688,205.111 70.5,206.5C 70.1667,206.5 69.8333,206.5 69.5,206.5C 63.1783,207.014 56.845,207.347 50.5,207.5C 50.5,206.5 50.5,205.5 50.5,204.5C 51.0787,201.669 52.412,199.336 54.5,197.5C 56.0739,195.898 56.7406,193.898 56.5,191.5C 56.6596,189.847 57.3263,188.514 58.5,187.5C 60.2451,185.967 61.2451,183.967 61.5,181.5C 63.7998,177.238 65.7998,172.905 67.5,168.5C 68.4972,168.53 69.1639,168.03 69.5,167C 71.0837,163.587 72.4171,160.087 73.5,156.5C 75.9479,155.527 78.6146,155.194 81.5,155.5C 93.1193,154.894 104.453,153.228 115.5,150.5C 118.99,149.743 122.323,148.743 125.5,147.5C 129.733,147.461 133.733,146.795 137.5,145.5C 147.905,144.71 158.238,143.377 168.5,141.5C 168.371,143.216 168.038,144.883 167.5,146.5 Z"/></g>
<g><path style="opacity:1" fill="#c0955f" d="M 201.5,141.5 C 205.952,141.631 210.286,142.298 214.5,143.5C 220.911,145.344 227.578,146.344 234.5,146.5C 234.5,147.167 234.833,147.5 235.5,147.5C 238.854,152.73 243.521,154.397 249.5,152.5C 251.984,154.483 254.317,156.65 256.5,159C 259.972,160.499 263.472,160.666 267,159.5C 272.651,161.294 278.484,162.294 284.5,162.5C 288.901,161.737 292.901,160.07 296.5,157.5C 302.886,172.607 309.553,187.607 316.5,202.5C 316.286,204.144 316.62,205.644 317.5,207C 315.527,207.495 313.527,207.662 311.5,207.5C 306.507,207.084 301.507,206.751 296.5,206.5C 295.833,206.5 295.167,206.5 294.5,206.5C 288.03,205.304 281.363,204.638 274.5,204.5C 258.272,202.244 241.939,200.577 225.5,199.5C 223.834,196.844 222.168,194.177 220.5,191.5C 220.068,190.29 219.401,189.29 218.5,188.5C 218.741,186.102 218.074,184.102 216.5,182.5C 214.819,179.093 213.153,175.759 211.5,172.5C 211.248,168.673 209.915,165.34 207.5,162.5C 206.925,159.088 205.592,156.088 203.5,153.5C 202.011,151.355 201.011,149.022 200.5,146.5C 200.322,145.305 199.989,144.138 199.5,143C 199.836,141.97 200.503,141.47 201.5,141.5 Z"/></g>
<g><path style="opacity:0.663" fill="#3e3c39" d="M 246.5,130.5 C 244.539,132.963 242.372,135.297 240,137.5C 239.502,140.482 239.335,143.482 239.5,146.5C 238.007,145.688 237.34,144.355 237.5,142.5C 238.23,136.773 241.23,132.773 246.5,130.5 Z"/></g>
<g><path style="opacity:1" fill="#5a4935" d="M 234.5,138.5 C 234.5,141.167 234.5,143.833 234.5,146.5C 227.578,146.344 220.911,145.344 214.5,143.5C 220.87,143.84 227.204,144.506 233.5,145.5C 233.198,142.941 233.532,140.607 234.5,138.5 Z"/></g>
<g><path style="opacity:1" fill="#5e4a31" d="M 201.5,141.5 C 200.503,141.47 199.836,141.97 199.5,143C 199.989,144.138 200.322,145.305 200.5,146.5C 198.72,145.01 198.054,143.01 198.5,140.5C 199.791,140.263 200.791,140.596 201.5,141.5 Z"/></g>
<g><path style="opacity:0.851" fill="#62605e" d="M 283.5,147.5 C 281.917,149.508 280.917,151.841 280.5,154.5C 280.5,151.833 280.5,149.167 280.5,146.5C 281.791,146.263 282.791,146.596 283.5,147.5 Z"/></g>
<g><path style="opacity:0.29" fill="#bab6b1" d="M 296.5,142.5 C 298.017,144.462 298.684,146.795 298.5,149.5C 298.493,151.369 298.16,153.036 297.5,154.5C 297.495,150.466 297.162,146.466 296.5,142.5 Z"/></g>
<g><path style="opacity:1" fill="#59462e" d="M 125.5,147.5 C 122.323,148.743 118.99,149.743 115.5,150.5C 114.5,150.5 113.5,150.5 112.5,150.5C 112.611,149.883 112.944,149.383 113.5,149C 117.466,148.172 121.466,147.672 125.5,147.5 Z"/></g>
<g><path style="opacity:0.78" fill="#5c5a57" d="M 271.5,145.5 C 270.043,148.812 268.71,152.312 267.5,156C 265.722,156.704 263.888,157.204 262,157.5C 260.301,157.613 259.134,156.947 258.5,155.5C 267.339,156.991 270.672,153.325 268.5,144.5C 269.791,144.263 270.791,144.596 271.5,145.5 Z"/></g>
<g><path style="opacity:0.494" fill="#b2b1b0" d="M 254.5,152.5 C 252.175,151.345 251.008,149.345 251,146.5C 250.617,147.056 250.117,147.389 249.5,147.5C 249.415,146.005 250.081,145.005 251.5,144.5C 252.51,147.183 253.51,149.849 254.5,152.5 Z"/></g>
<g><path style="opacity:0.714" fill="#4e4c48" d="M 292.5,143.5 C 293.79,144.058 294.623,145.058 295,146.5C 295.796,149.039 295.629,151.372 294.5,153.5C 293.96,150.135 293.294,146.802 292.5,143.5 Z"/></g>
<g><path style="opacity:1" fill="#9a784c" d="M 112.5,150.5 C 113.5,150.5 114.5,150.5 115.5,150.5C 104.453,153.228 93.1193,154.894 81.5,155.5C 91.6464,153.476 101.98,151.809 112.5,150.5 Z"/></g>
<g><path style="opacity:1" fill="#634e33" d="M 166.5,149.5 C 166.204,151.403 165.537,153.07 164.5,154.5C 164.12,152.302 164.787,150.635 166.5,149.5 Z"/></g>
<g><path style="opacity:0.169" fill="#a9a7a2" d="M 53.5,144.5 C 55.6723,145.661 57.0057,147.495 57.5,150C 56.2001,153.769 54.5334,157.269 52.5,160.5C 53.6515,156.896 54.6515,153.229 55.5,149.5C 54.8131,147.823 54.1465,146.156 53.5,144.5 Z"/></g>
<g><path style="opacity:0.153" fill="#f7f5ed" d="M 47.5,141.5 C 49.9468,141.615 51.9468,142.615 53.5,144.5C 54.1465,146.156 54.8131,147.823 55.5,149.5C 54.6515,153.229 53.6515,156.896 52.5,160.5C 52.1667,161.167 51.8333,161.833 51.5,162.5C 50.0209,163.759 48.3542,164.759 46.5,165.5C 47.5509,161.731 48.8843,158.065 50.5,154.5C 52.3258,152.545 52.8258,150.212 52,147.5C 50.2588,145.604 48.7588,143.604 47.5,141.5 Z"/></g>
<g><path style="opacity:1" fill="#4c3c28" d="M 203.5,153.5 C 205.592,156.088 206.925,159.088 207.5,162.5C 204.835,160.165 203.502,157.165 203.5,153.5 Z"/></g>
<g><path style="opacity:0.553" fill="#8e8b88" d="M 280.5,155.5 C 279.575,157.884 277.742,158.884 275,158.5C 273.833,158.167 272.667,157.833 271.5,157.5C 271.624,156.893 271.957,156.56 272.5,156.5C 275.217,157.767 277.883,157.434 280.5,155.5 Z"/></g>
<g><path style="opacity:1" fill="#6f5739" d="M 73.5,156.5 C 72.4171,160.087 71.0837,163.587 69.5,167C 69.1639,168.03 68.4972,168.53 67.5,168.5C 68.569,163.911 70.569,159.911 73.5,156.5 Z"/></g>
<g><path style="opacity:0.616" fill="#706e6a" d="M 314.5,159.5 C 316.245,161.033 317.245,163.033 317.5,165.5C 315.755,163.967 314.755,161.967 314.5,159.5 Z"/></g>
<g><path style="opacity:1" fill="#4e3e29" d="M 207.5,162.5 C 209.915,165.34 211.248,168.673 211.5,172.5C 209.085,169.66 207.752,166.327 207.5,162.5 Z"/></g>
<g><path style="opacity:0.259" fill="#c1bdb7" d="M 51.5,162.5 C 50.9119,165.889 49.5786,168.889 47.5,171.5C 47.1667,169.5 46.8333,167.5 46.5,165.5C 48.3542,164.759 50.0209,163.759 51.5,162.5 Z"/></g>
<g><path style="opacity:1" fill="#55442d" d="M 160.5,163.5 C 160.245,165.967 159.245,167.967 157.5,169.5C 157.755,167.033 158.755,165.033 160.5,163.5 Z"/></g>
<g><path style="opacity:1" fill="#231d15" d="M 174.5,170.5 C 175.209,169.596 176.209,169.263 177.5,169.5C 177.5,218.833 177.5,268.167 177.5,317.5C 174.941,317.802 172.607,317.468 170.5,316.5C 172.167,316.5 173.833,316.5 175.5,316.5C 176.167,292.336 176.5,268.002 176.5,243.5C 176.5,218.824 175.833,194.491 174.5,170.5 Z"/></g>
<g><path style="opacity:0.098" fill="#f2efe3" d="M -0.5,145.5 C 0.282003,148.714 1.11534,152.048 2,155.5C 2.38258,156.056 2.88258,156.389 3.5,156.5C 3.02458,159.313 4.02458,161.313 6.5,162.5C 6.42702,164.027 7.09368,165.027 8.5,165.5C 10.5732,167.58 12.9066,169.246 15.5,170.5C 20.0085,173.204 24.3418,172.871 28.5,169.5C 30.1667,168.167 31.8333,166.833 33.5,165.5C 35.8597,163.089 36.8597,160.089 36.5,156.5C 36.8636,152.948 35.8636,149.948 33.5,147.5C 33.5,146.833 33.5,146.167 33.5,145.5C 34.5,145.5 35.5,145.5 36.5,145.5C 36.5,145.833 36.5,146.167 36.5,146.5C 36.2729,148.933 37.2729,150.599 39.5,151.5C 39.5,151.833 39.5,152.167 39.5,152.5C 40.1877,161.325 36.6877,167.992 29,172.5C 27.4207,171.828 26.254,172.495 25.5,174.5C 22.5547,175.468 19.5547,175.634 16.5,175C 10.3328,172.323 5.66612,168.157 2.5,162.5C 1.37113,159.491 0.371128,156.491 -0.5,153.5C -0.5,150.833 -0.5,148.167 -0.5,145.5 Z"/></g>
<g><path style="opacity:0.757" fill="#52504c" d="M 28.5,169.5 C 24.3418,172.871 20.0085,173.204 15.5,170.5C 19.8814,170.628 24.2147,170.295 28.5,169.5 Z"/></g>
<g><path style="opacity:0.4" fill="#95918b" d="M 6.5,162.5 C 7.90632,162.973 8.57298,163.973 8.5,165.5C 7.09368,165.027 6.42702,164.027 6.5,162.5 Z"/></g>
<g><path style="opacity:0.329" fill="#a9a5a0" d="M 3.5,156.5 C 4.49178,158.456 5.49178,160.456 6.5,162.5C 4.02458,161.313 3.02458,159.313 3.5,156.5 Z"/></g>
<g><path style="opacity:0.802" fill="#3a3835" d="M 33.5,147.5 C 35.8636,149.948 36.8636,152.948 36.5,156.5C 36.8597,160.089 35.8597,163.089 33.5,165.5C 34.7257,159.521 34.7257,153.521 33.5,147.5 Z"/></g>
<g><path style="opacity:1" fill="#654f33" d="M 174.5,170.5 C 175.833,194.491 176.5,218.824 176.5,243.5C 176.5,268.002 176.167,292.336 175.5,316.5C 175.667,268.499 175.5,220.499 175,172.5C 174.617,173.056 174.117,173.389 173.5,173.5C 173.557,172.391 173.89,171.391 174.5,170.5 Z"/></g>
<g><path style="opacity:1" fill="#624d32" d="M 194.5,173.5 C 193.883,173.389 193.383,173.056 193,172.5C 192.5,220.499 192.333,268.499 192.5,316.5C 192.167,316.5 191.833,316.5 191.5,316.5C 191.167,267.829 191.5,219.162 192.5,170.5C 193.919,171.005 194.585,172.005 194.5,173.5 Z"/></g>
<g><path style="opacity:0.62" fill="#7e7a76" d="M 47.5,172.5 C 47.573,174.027 46.9063,175.027 45.5,175.5C 45.427,173.973 46.0937,172.973 47.5,172.5 Z"/></g>
<g><path style="opacity:1" fill="#aa8454" d="M 175.5,316.5 C 173.833,316.5 172.167,316.5 170.5,316.5C 170.5,316.167 170.5,315.833 170.5,315.5C 171.833,315.5 173.167,315.5 174.5,315.5C 174.667,269.165 174.5,222.832 174,176.5C 173.617,177.056 173.117,177.389 172.5,177.5C 172.833,176.167 173.167,174.833 173.5,173.5C 174.117,173.389 174.617,173.056 175,172.5C 175.5,220.499 175.667,268.499 175.5,316.5 Z"/></g>
<g><path style="opacity:1" fill="#a98353" d="M 194.5,173.5 C 194.5,174.167 194.5,174.833 194.5,175.5C 193.833,198.664 193.5,221.998 193.5,245.5C 193.5,269.176 194.167,292.51 195.5,315.5C 194.791,316.404 193.791,316.737 192.5,316.5C 192.333,268.499 192.5,220.499 193,172.5C 193.383,173.056 193.883,173.389 194.5,173.5 Z"/></g>
<g><path style="opacity:1" fill="#55442d" d="M 156.5,172.5 C 156.245,174.967 155.245,176.967 153.5,178.5C 153.755,176.033 154.755,174.033 156.5,172.5 Z"/></g>
<g><path style="opacity:1" fill="#c2965f" d="M 170.5,315.5 C 139.4,309.975 108.4,303.975 77.5,297.5C 76.791,296.596 75.791,296.263 74.5,296.5C 74.5,271.833 74.5,247.167 74.5,222.5C 77.0593,222.802 79.3926,222.468 81.5,221.5C 95.6938,220.68 109.694,219.347 123.5,217.5C 123.833,217.5 124.167,217.5 124.5,217.5C 132.178,217.032 139.845,216.366 147.5,215.5C 149.64,215.444 151.306,214.777 152.5,213.5C 153.833,213.5 155.167,213.5 156.5,213.5C 157.826,209.51 159.16,205.51 160.5,201.5C 162.304,196.558 164.638,191.891 167.5,187.5C 168.492,185.544 169.492,183.544 170.5,181.5C 170.66,179.847 171.326,178.514 172.5,177.5C 173.117,177.389 173.617,177.056 174,176.5C 174.5,222.832 174.667,269.165 174.5,315.5C 173.167,315.5 171.833,315.5 170.5,315.5 Z"/></g>
<g><path style="opacity:1" fill="#c2965f" d="M 194.5,175.5 C 200.562,186.247 206.229,197.247 211.5,208.5C 211.183,211.546 212.516,213.213 215.5,213.5C 215.5,214.167 215.833,214.5 216.5,214.5C 229.262,216.726 242.262,218.059 255.5,218.5C 261.161,218.907 266.828,219.24 272.5,219.5C 276.567,221.054 280.9,221.72 285.5,221.5C 287.948,222.473 290.615,222.806 293.5,222.5C 293.5,247.167 293.5,271.833 293.5,296.5C 290.848,296.41 288.515,297.076 286.5,298.5C 286.167,298.5 285.833,298.5 285.5,298.5C 255.442,303.912 225.442,309.578 195.5,315.5C 194.167,292.51 193.5,269.176 193.5,245.5C 193.5,221.998 193.833,198.664 194.5,175.5 Z"/></g>
<g><path style="opacity:0.082" fill="#f1ede3" d="M 304.5,141.5 C 306.262,141.357 307.929,141.691 309.5,142.5C 311.717,145.058 312.883,148.058 313,151.5C 314.691,153.995 316.524,156.329 318.5,158.5C 318.5,158.833 318.5,159.167 318.5,159.5C 319.088,162.063 320.088,164.396 321.5,166.5C 321.66,168.153 322.326,169.486 323.5,170.5C 324.272,171.694 325.272,172.694 326.5,173.5C 327.763,178.287 329.429,182.954 331.5,187.5C 331.196,188.15 330.863,188.817 330.5,189.5C 331.887,191.21 333.221,192.877 334.5,194.5C 334.5,194.833 334.5,195.167 334.5,195.5C 334.427,197.027 335.094,198.027 336.5,198.5C 336.5,199.167 336.5,199.833 336.5,200.5C 335.508,200.328 334.842,200.662 334.5,201.5C 334.167,201.5 333.833,201.5 333.5,201.5C 328.734,189.185 323.401,177.185 317.5,165.5C 317.245,163.033 316.245,161.033 314.5,159.5C 312.409,152.759 309.076,146.759 304.5,141.5 Z"/></g>
<g><path style="opacity:1" fill="#715839" d="M 170.5,181.5 C 169.492,183.544 168.492,185.544 167.5,187.5C 167.025,184.687 168.025,182.687 170.5,181.5 Z"/></g>
<g><path style="opacity:1" fill="#4b3c28" d="M 216.5,182.5 C 218.074,184.102 218.741,186.102 218.5,188.5C 216.926,186.898 216.259,184.898 216.5,182.5 Z"/></g>
<g><path style="opacity:1" fill="#634e33" d="M 61.5,181.5 C 61.2451,183.967 60.2451,185.967 58.5,187.5C 58.7549,185.033 59.7549,183.033 61.5,181.5 Z"/></g>
<g><path style="opacity:1" fill="#59472f" d="M 152.5,181.5 C 151.917,184.947 150.584,187.947 148.5,190.5C 148.343,189.127 148.51,187.793 149,186.5C 149.902,184.569 151.069,182.903 152.5,181.5 Z"/></g>
<g><path style="opacity:0.165" fill="#dcd7ce" d="M 44.5,178.5 C 43.2829,182.363 41.6162,186.03 39.5,189.5C 37.7549,191.033 36.7549,193.033 36.5,195.5C 36.5,195.833 36.5,196.167 36.5,196.5C 35.0937,196.973 34.427,197.973 34.5,199.5C 32.7299,204.833 30.3966,209.833 27.5,214.5C 28.1614,211.213 28.6614,207.88 29,204.5C 30.501,201.747 32.001,199.08 33.5,196.5C 34.4519,194.955 34.7852,193.288 34.5,191.5C 35.1174,191.611 35.6174,191.944 36,192.5C 36.9823,186.69 39.8157,182.023 44.5,178.5 Z"/></g>
<g><path style="opacity:0.627" fill="#726f6b" d="M 39.5,189.5 C 39.2451,191.967 38.2451,193.967 36.5,195.5C 36.7549,193.033 37.7549,191.033 39.5,189.5 Z"/></g>
<g><path style="opacity:1" fill="#7f6240" d="M 56.5,191.5 C 56.7406,193.898 56.0739,195.898 54.5,197.5C 54.2594,195.102 54.9261,193.102 56.5,191.5 Z"/></g>
<g><path style="opacity:1" fill="#614c32" d="M 147.5,192.5 C 147.204,194.403 146.537,196.07 145.5,197.5C 145.12,195.302 145.787,193.635 147.5,192.5 Z"/></g>
<g><path style="opacity:1" fill="#52412b" d="M 220.5,191.5 C 222.168,194.177 223.834,196.844 225.5,199.5C 221.868,198.267 220.202,195.601 220.5,191.5 Z"/></g>
<g><path style="opacity:0.529" fill="#72706c" d="M 36.5,196.5 C 36.573,198.027 35.9063,199.027 34.5,199.5C 34.427,197.973 35.0937,196.973 36.5,196.5 Z"/></g>
<g><path style="opacity:1" fill="#715839" d="M 133.5,199.5 C 122.422,201.817 111.088,203.15 99.5,203.5C 110.642,201.733 121.975,200.4 133.5,199.5 Z"/></g>
<g><path style="opacity:0.588" fill="#6b6a64" d="M 333.5,201.5 C 333.833,201.5 334.167,201.5 334.5,201.5C 335.11,202.391 335.443,203.391 335.5,204.5C 334.094,204.027 333.427,203.027 333.5,201.5 Z"/></g>
<g><path style="opacity:1" fill="#705839" d="M 85.5,204.5 C 80.7312,205.889 75.7312,206.556 70.5,206.5C 75.2688,205.111 80.2688,204.444 85.5,204.5 Z"/></g>
<g><path style="opacity:1" fill="#886a44" d="M 160.5,201.5 C 159.16,205.51 157.826,209.51 156.5,213.5C 155.167,213.5 153.833,213.5 152.5,213.5C 155.18,209.463 157.846,205.463 160.5,201.5 Z"/></g>
<g><path style="opacity:1" fill="#3c3121" d="M 274.5,204.5 C 281.363,204.638 288.03,205.304 294.5,206.5C 289.156,206.666 283.823,206.499 278.5,206C 276.942,205.79 275.609,205.29 274.5,204.5 Z"/></g>
<g><path style="opacity:1" fill="#715839" d="M 50.5,204.5 C 50.5,205.5 50.5,206.5 50.5,207.5C 56.845,207.347 63.1783,207.014 69.5,206.5C 63.0721,208.126 56.4054,208.793 49.5,208.5C 49.2322,206.901 49.5655,205.568 50.5,204.5 Z"/></g>
<g><path style="opacity:1" fill="#57452d" d="M 296.5,206.5 C 301.507,206.751 306.507,207.084 311.5,207.5C 311.5,207.833 311.5,208.167 311.5,208.5C 306.269,208.556 301.269,207.889 296.5,206.5 Z"/></g>
<g><path style="opacity:1" fill="#886a44" d="M 316.5,202.5 C 318.074,204.102 318.741,206.102 318.5,208.5C 316.167,208.5 313.833,208.5 311.5,208.5C 311.5,208.167 311.5,207.833 311.5,207.5C 313.527,207.662 315.527,207.495 317.5,207C 316.62,205.644 316.286,204.144 316.5,202.5 Z"/></g>
<g><path style="opacity:0.341" fill="#eee9de" d="M 334.5,201.5 C 336.371,201.859 337.871,202.859 339,204.5C 340.193,208.148 341.693,211.481 343.5,214.5C 343.5,217.833 343.5,221.167 343.5,224.5C 341.95,225.441 340.284,226.107 338.5,226.5C 338.5,226.167 338.5,225.833 338.5,225.5C 339.458,225.047 340.292,224.381 341,223.5C 341.667,220.833 341.667,218.167 341,215.5C 339.153,211.807 337.32,208.14 335.5,204.5C 335.443,203.391 335.11,202.391 334.5,201.5 Z"/></g>
<g><path style="opacity:1" fill="#745b3b" d="M 211.5,208.5 C 212.803,210.142 214.136,211.809 215.5,213.5C 212.516,213.213 211.183,211.546 211.5,208.5 Z"/></g>
<g><path style="opacity:1" fill="#775d3c" d="M 152.5,213.5 C 151.306,214.777 149.64,215.444 147.5,215.5C 139.845,216.366 132.178,217.032 124.5,217.5C 133.668,215.872 143.002,214.539 152.5,213.5 Z"/></g>
<g><path style="opacity:1" fill="#6a5336" d="M 216.5,214.5 C 229.738,214.941 242.738,216.274 255.5,218.5C 242.262,218.059 229.262,216.726 216.5,214.5 Z"/></g>
<g><path style="opacity:0.525" fill="#96938e" d="M 27.5,215.5 C 26.7814,217.764 26.448,220.097 26.5,222.5C 25.8529,221.726 25.5195,220.726 25.5,219.5C 25.3402,217.645 26.0069,216.312 27.5,215.5 Z"/></g>
<g><path style="opacity:1" fill="#6a5336" d="M 123.5,217.5 C 109.694,219.347 95.6938,220.68 81.5,221.5C 79.1667,221.5 76.8333,221.5 74.5,221.5C 90.6018,219.098 106.935,217.765 123.5,217.5 Z"/></g>
<g><path style="opacity:1" fill="#614c32" d="M 272.5,219.5 C 277.1,219.28 281.433,219.946 285.5,221.5C 280.9,221.72 276.567,221.054 272.5,219.5 Z"/></g>
<g><path style="opacity:1" fill="#a37e51" d="M 74.5,221.5 C 76.8333,221.5 79.1667,221.5 81.5,221.5C 79.3926,222.468 77.0593,222.802 74.5,222.5C 74.5,247.167 74.5,271.833 74.5,296.5C 75.791,296.263 76.791,296.596 77.5,297.5C 76.1667,297.5 74.8333,297.5 73.5,297.5C 73.1689,271.995 73.5023,246.661 74.5,221.5 Z"/></g>
<g><path style="opacity:1" fill="#8a6c45" d="M 285.5,221.5 C 288.833,221.5 292.167,221.5 295.5,221.5C 296.157,246.856 295.491,271.856 293.5,296.5C 293.5,271.833 293.5,247.167 293.5,222.5C 290.615,222.806 287.948,222.473 285.5,221.5 Z"/></g>
<g><path style="opacity:0.655" fill="#686661" d="M 58.5,306.5 C 58.1667,306.5 57.8333,306.5 57.5,306.5C 57.1047,279.168 56.7713,251.834 56.5,224.5C 54.2646,224.205 52.2646,224.539 50.5,225.5C 43.3321,226.361 36.3321,226.361 29.5,225.5C 38.8434,224.966 48.1768,224.299 57.5,223.5C 57.9091,251.166 58.2424,278.832 58.5,306.5 Z"/></g>
<g><path style="opacity:0.533" fill="#6e6b67" d="M 316.5,224.5 C 323.813,225.187 331.146,225.521 338.5,225.5C 338.5,225.833 338.5,226.167 338.5,226.5C 332.833,226.5 327.167,226.5 321.5,226.5C 319.833,225.833 318.167,225.167 316.5,224.5 Z"/></g>
<g><path style="opacity:0.075" fill="#d3d0cb" d="M 26.5,222.5 C 27.2719,223.694 28.2719,224.694 29.5,225.5C 36.3321,226.361 43.3321,226.361 50.5,225.5C 50.631,226.239 50.4643,226.906 50,227.5C 42.939,227.475 35.7724,227.308 28.5,227C 26.8934,225.951 26.2267,224.451 26.5,222.5 Z"/></g>
<g><path style="opacity:0.667" fill="#686663" d="M 316.5,224.5 C 314.833,224.5 313.167,224.5 311.5,224.5C 311.813,228.042 311.479,231.375 310.5,234.5C 310.5,230.833 310.5,227.167 310.5,223.5C 312.735,223.205 314.735,223.539 316.5,224.5 Z"/></g>
<g><path style="opacity:0.298" fill="#d6d3cb" d="M 316.5,224.5 C 318.167,225.167 319.833,225.833 321.5,226.5C 318.5,226.5 315.5,226.5 312.5,226.5C 312.906,253.526 312.406,280.526 311,307.5C 310.626,308.416 310.126,309.25 309.5,310C 306.563,311.801 303.563,313.301 300.5,314.5C 297.171,314.215 294.171,314.882 291.5,316.5C 288.813,316.336 286.146,316.503 283.5,317C 282.584,317.278 281.918,317.778 281.5,318.5C 280.833,318.5 280.5,318.167 280.5,317.5C 280.5,316.833 280.5,316.167 280.5,315.5C 280.833,315.5 281.167,315.5 281.5,315.5C 284.495,315.706 287.162,315.04 289.5,313.5C 294.445,312.276 299.445,311.11 304.5,310C 306.624,308.878 308.457,307.378 310,305.5C 310.5,281.836 310.667,258.169 310.5,234.5C 311.479,231.375 311.813,228.042 311.5,224.5C 313.167,224.5 314.833,224.5 316.5,224.5 Z"/></g>
<g><path style="opacity:0.283" fill="#e0dcd6" d="M 50.5,225.5 C 52.2646,224.539 54.2646,224.205 56.5,224.5C 56.7713,251.834 57.1047,279.168 57.5,306.5C 56.8333,306.833 56.1667,307.167 55.5,307.5C 55.3994,280.457 55.3994,253.123 55.5,225.5C 53.8333,225.5 52.1667,225.5 50.5,225.5 Z"/></g>
<g><path style="opacity:1" fill="#56452d" d="M 293.5,296.5 C 291.485,297.924 289.152,298.59 286.5,298.5C 288.515,297.076 290.848,296.41 293.5,296.5 Z"/></g>
<g><path style="opacity:1" fill="#423524" d="M 285.5,298.5 C 256.957,304.611 228.29,310.777 199.5,317C 196.633,317.801 193.966,317.634 191.5,316.5C 191.833,316.5 192.167,316.5 192.5,316.5C 193.791,316.737 194.791,316.404 195.5,315.5C 225.442,309.578 255.442,303.912 285.5,298.5 Z"/></g>
<g><path style="opacity:0.424" fill="#878581" d="M 61.5,309.5 C 63.403,309.796 65.0697,310.463 66.5,311.5C 64.302,311.88 62.6354,311.213 61.5,309.5 Z"/></g>
<g><path style="opacity:0.396" fill="#94928c" d="M 289.5,313.5 C 287.162,315.04 284.495,315.706 281.5,315.5C 283.905,314.232 286.572,313.565 289.5,313.5 Z"/></g>
<g><path style="opacity:0.192" fill="#d3cec7" d="M 68.5,311.5 C 78.4193,313.398 88.086,315.731 97.5,318.5C 88.3663,317.8 79.3663,316.3 70.5,314C 69.6195,313.292 68.9528,312.458 68.5,311.5 Z"/></g>
<g><path style="opacity:0.271" fill="#a6a39e" d="M 280.5,315.5 C 280.5,316.167 280.5,316.833 280.5,317.5C 280.167,317.5 279.833,317.5 279.5,317.5C 275.802,317.552 272.135,317.886 268.5,318.5C 272.2,316.755 276.2,315.755 280.5,315.5 Z"/></g>
<g><path style="opacity:0.145" fill="#e1dcd1" d="M 279.5,317.5 C 276.754,318.251 274.087,319.251 271.5,320.5C 267.988,319.945 264.988,320.612 262.5,322.5C 262.167,322.5 261.833,322.5 261.5,322.5C 256.825,322.794 252.325,323.794 248,325.5C 247.439,324.978 246.772,324.645 246,324.5C 241.743,325.906 237.576,327.239 233.5,328.5C 232.508,328.672 231.842,328.338 231.5,327.5C 233.574,326.486 235.574,325.486 237.5,324.5C 241.36,323.196 245.36,322.529 249.5,322.5C 252.152,322.59 254.485,321.924 256.5,320.5C 260.36,319.196 264.36,318.529 268.5,318.5C 272.135,317.886 275.802,317.552 279.5,317.5 Z"/></g>
<g><path style="opacity:0.333" fill="#9b9791" d="M 256.5,320.5 C 254.485,321.924 252.152,322.59 249.5,322.5C 251.515,321.076 253.848,320.41 256.5,320.5 Z"/></g>
<g><path style="opacity:0.235" fill="#b6b2ac" d="M 114.5,321.5 C 118.774,321.87 122.774,322.87 126.5,324.5C 122.159,324.342 118.159,323.342 114.5,321.5 Z"/></g>
<g><path style="opacity:0.251" fill="#aaa6a0" d="M 237.5,324.5 C 235.574,325.486 233.574,326.486 231.5,327.5C 229.167,327.5 226.833,327.5 224.5,327.5C 228.681,326.34 233.015,325.34 237.5,324.5 Z"/></g>
<g><path style="opacity:0.404" fill="#9d9995" d="M 223.5,327.5 C 219.983,329.468 215.983,330.468 211.5,330.5C 215.2,328.755 219.2,327.755 223.5,327.5 Z"/></g>
<g><path style="opacity:0.188" fill="#d0ccc4" d="M 150.5,329.5 C 157.062,330.311 163.395,331.644 169.5,333.5C 164.195,332.806 158.862,332.472 153.5,332.5C 153.167,332.5 152.833,332.5 152.5,332.5C 151.833,331.5 151.167,330.5 150.5,329.5 Z"/></g>
<g><path style="opacity:0.122" fill="#9b9793" d="M 210.5,330.5 C 205.894,332.876 200.894,333.876 195.5,333.5C 200.273,331.978 205.273,330.978 210.5,330.5 Z"/></g>
<g><path style="opacity:0.184" fill="#c1bdb7" d="M 171.5,333.5 C 175.126,334.322 178.793,334.989 182.5,335.5C 186.843,334.831 191.177,334.164 195.5,333.5C 195.389,334.117 195.056,334.617 194.5,335C 190.517,335.64 186.517,336.14 182.5,336.5C 178.421,336.566 174.755,335.566 171.5,333.5 Z"/></g>
</svg>
